<svg xmlns="http://www.w3.org/2000/svg" xmlns:xlink="http://www.w3.org/1999/xlink" width="1080" zoomAndPan="magnify" viewBox="0 0 810 809.999993" height="1080" preserveAspectRatio="xMidYMid meet" version="1.0"><defs><clipPath id="4427c72329"><path d="M 129.214844 272 L 169 272 L 169 494 L 129.214844 494 Z M 129.214844 272 " clip-rule="nonzero"/></clipPath><clipPath id="62b2330fe3"><path d="M 315 563 L 602 563 L 602 668.9375 L 315 668.9375 Z M 315 563 " clip-rule="nonzero"/></clipPath><clipPath id="fb383f1f2a"><path d="M 332 140.9375 L 631 140.9375 L 631 293 L 332 293 Z M 332 140.9375 " clip-rule="nonzero"/></clipPath><clipPath id="681796d9ce"><path d="M 646 488 L 680.464844 488 L 680.464844 512 L 646 512 Z M 646 488 " clip-rule="nonzero"/></clipPath></defs><path fill="#fff8eb" d="M 443.277344 281.316406 C 445.890625 287.105469 446.128906 294.851562 442.773438 300.402344 C 438.167969 308.65625 424.265625 310.734375 415.558594 311.328125 C 411.933594 311.503906 408.222656 311.921875 404.65625 311.03125 C 399.992188 309.488281 395.121094 307.46875 391.882812 303.667969 C 391.761719 303.429688 391.671875 303.164062 391.585938 302.925781 C 394.585938 299.125 396.25 296.78125 396.785156 291.792969 C 398.179688 285.648438 397.46875 279.386719 395.328125 273.566406 C 396.488281 272.972656 397.320312 271.875 398.328125 271.101562 C 400.527344 269.621094 402.695312 267.988281 405.191406 267.007812 C 409.410156 265.464844 414.074219 265.375 418.5 265.910156 C 423.433594 266.085938 428.125 267.601562 432.375 270.09375 C 436.652344 272.945312 441.167969 276.445312 443.277344 281.316406 Z M 443.277344 281.316406 " fill-opacity="1" fill-rule="nonzero"/><path fill="#fff8eb" d="M 484.425781 276.296875 C 484.425781 276.476562 484.394531 276.65625 484.367188 276.863281 C 478.542969 277.929688 474.027344 281.136719 468.945312 285.085938 C 463.421875 289.539062 458.460938 296.277344 457.894531 303.519531 C 457.894531 303.964844 457.894531 304.410156 457.894531 304.886719 C 457.09375 304.914062 456.289062 304.886719 455.457031 304.945312 C 453.230469 304.738281 451.003906 304.5 448.863281 303.90625 C 447.675781 303.550781 446.425781 303.195312 445.417969 302.453125 C 445.359375 302.363281 445.269531 302.273438 445.179688 302.183594 C 449.191406 295.710938 449.042969 286.894531 445.953125 280.097656 C 444.109375 276.089844 441.050781 272.765625 437.484375 270.09375 C 437.574219 269.945312 437.664062 269.769531 437.722656 269.558594 C 441.703125 262.226562 448.449219 257.6875 456.675781 256.617188 C 464.996094 255.578125 473.105469 259.824219 478.484375 266.027344 C 481.066406 269.054688 483.800781 272.261719 484.425781 276.296875 Z M 484.425781 276.296875 " fill-opacity="1" fill-rule="nonzero"/><path fill="#fff8eb" d="M 513.152344 294.140625 C 516.835938 302.035156 513.835938 311.121094 508.164062 317.234375 C 506.410156 318.867188 504.390625 320.292969 502.160156 321.183594 C 499.933594 321.597656 497.675781 321.925781 495.445312 322.429688 C 493.632812 322.28125 491.882812 323.140625 490.039062 323.320312 C 487.21875 323.527344 484.367188 322.84375 481.542969 322.695312 C 475.421875 321.984375 468.648438 320.765625 464.222656 316.136719 C 461.667969 312.929688 460.925781 308.773438 460.804688 304.738281 C 460.6875 301.027344 462.320312 297.613281 464.3125 294.554688 C 467.195312 289.390625 472.421875 286.214844 477.058594 282.800781 C 486.355469 277.070312 495.714844 279.503906 504.417969 285.113281 C 506.734375 286.390625 508.636719 288.261719 510.359375 290.25 C 511.488281 291.410156 512.558594 292.625 513.152344 294.140625 Z M 513.152344 294.140625 " fill-opacity="1" fill-rule="nonzero"/><path fill="#fff8eb" d="M 461.964844 318.035156 C 462.558594 318.6875 463.210938 319.253906 463.867188 319.789062 C 463.210938 323.410156 462.144531 327 461.933594 330.710938 C 461.371094 338.371094 462.023438 346.03125 461.550781 353.6875 C 461.550781 353.984375 461.667969 354.222656 461.785156 354.429688 C 460.777344 358.734375 459.914062 363.097656 459.320312 367.492188 C 458.101562 376.933594 457.566406 386.433594 455.785156 395.78125 C 455.371094 397.800781 455.160156 399.847656 454.804688 401.898438 C 453.707031 398.097656 452.636719 394.328125 451.566406 390.527344 C 448.03125 375.832031 445.980469 360.84375 442.890625 346.058594 C 443.070312 345.496094 443.128906 344.84375 443.21875 344.308594 C 443.546875 342.824219 444.082031 341.398438 444.554688 339.972656 C 446.605469 333.382812 448.179688 326.824219 448.746094 319.90625 C 449.070312 315.660156 450.050781 311.503906 450.289062 307.230469 C 452.367188 307.644531 454.328125 307.824219 455.28125 307.882812 C 456.082031 307.734375 457.09375 307.914062 458.042969 307.882812 C 458.488281 311.566406 459.648438 315.128906 461.964844 318.035156 Z M 461.964844 318.035156 " fill-opacity="1" fill-rule="nonzero"/><path fill="#fff8eb" d="M 464.726562 453.667969 C 466.066406 463.554688 465.828125 473.738281 465.234375 483.710938 C 465.085938 493.507812 463.867188 503.246094 462.351562 512.953125 C 461.847656 516.367188 461.371094 519.777344 460.273438 523.074219 C 460.121094 523.90625 459.292969 525.925781 458.695312 527.882812 C 457.925781 526.191406 457.152344 524.5 456.4375 522.808594 C 452.84375 514.289062 448.386719 506.152344 445 497.515625 C 440.160156 485.550781 437.605469 472.875 434.394531 460.40625 C 430.679688 448.175781 429.316406 435.5 427.234375 422.945312 C 425.957031 417.453125 424.886719 411.929688 423.820312 406.378906 C 422.808594 401.511719 421.679688 396.703125 421.414062 391.714844 C 420.90625 386.609375 418.796875 381.769531 418.410156 376.664062 C 418.621094 376.339844 418.738281 376.042969 418.769531 375.773438 C 419.242188 375.507812 419.71875 375.269531 420.195312 375.179688 C 425.542969 372.925781 430.742188 369.15625 432.40625 363.335938 C 434.246094 358.140625 434.664062 352.589844 432.671875 347.367188 C 430.800781 339.914062 426.910156 333.144531 421.414062 327.773438 C 416.984375 323.351562 412.054688 320.234375 406.914062 318.453125 C 407.269531 317.414062 407.152344 315.78125 407.09375 314.445312 C 407.804688 314.535156 408.519531 314.5625 409.230469 314.5625 C 415.976562 314.445312 425.246094 313.851562 432.910156 311.148438 C 433.386719 313.375 433.769531 315.632812 434.066406 317.886719 C 435.554688 326.40625 437.1875 334.898438 439.238281 343.296875 C 442.800781 359.179688 444.851562 375.359375 448.683594 391.179688 C 454.390625 411.871094 461.3125 432.414062 464.726562 453.667969 Z M 464.726562 453.667969 " fill-opacity="1" fill-rule="nonzero"/><path fill="#fff8eb" d="M 431.128906 354.488281 C 430.769531 362.058594 428.15625 368.324219 420.9375 371.617188 C 419.511719 371.53125 418.382812 372.71875 417.015625 373.191406 C 411.964844 374.4375 406.824219 375.476562 401.597656 375.773438 C 396.039062 375.863281 390.277344 375.894531 384.691406 375.242188 C 377.652344 373.636719 370.519531 371.144531 365.5 365.710938 C 360.539062 360.367188 359.675781 352.292969 361.667969 345.4375 C 362.054688 345.109375 362.261719 344.605469 362.144531 344.039062 C 362.144531 344.011719 362.144531 344.011719 362.144531 344.011719 C 362.230469 343.742188 362.351562 343.476562 362.441406 343.210938 C 365.234375 338.28125 368.175781 333.144531 372.628906 329.523438 C 387.753906 316.640625 405.398438 315.808594 419.75 330.324219 C 426.164062 336.707031 430.148438 345.496094 431.128906 354.488281 Z M 431.128906 354.488281 " fill-opacity="1" fill-rule="nonzero"/><path fill="#fff8eb" d="M 492.058594 325.992188 C 490.574219 329.613281 489.980469 333.621094 489.296875 337.449219 C 489.296875 338.015625 489.058594 338.636719 488.96875 339.261719 C 483.769531 338.996094 478.453125 341.457031 474.414062 344.574219 C 470.074219 348.019531 466.214844 352.410156 464.757812 357.84375 C 464.191406 361.019531 464.757812 364.375 465.558594 367.460938 C 467.667969 372.125 471.648438 375.921875 476.136719 378.296875 C 476.582031 378.503906 476.996094 378.714844 477.441406 378.890625 C 477.5625 379.457031 477.769531 380.050781 477.800781 380.613281 C 478.542969 389.28125 477.292969 397.921875 476.105469 406.5 C 475.332031 411.515625 474.949219 416.800781 473.074219 421.609375 C 471.203125 426.507812 468.976562 431.285156 466.925781 436.125 C 466.273438 437.519531 465.707031 438.976562 465.203125 440.460938 C 462.707031 429.269531 459.558594 418.253906 456.378906 407.242188 C 457.804688 405.28125 457.953125 399.847656 458.398438 398.277344 C 460.210938 388.804688 461.042969 379.1875 462.054688 369.601562 C 463.242188 360.070312 465.621094 350.929688 468.324219 341.726562 C 469.808594 336.054688 471.085938 330.296875 473.105469 324.773438 C 473.253906 324.65625 473.375 324.507812 473.460938 324.359375 C 478.246094 325.578125 483.386719 325.875 488.136719 326.40625 C 489.445312 326.4375 490.78125 326.257812 492.058594 325.992188 Z M 492.058594 325.992188 " fill-opacity="1" fill-rule="nonzero"/><path fill="#fff8eb" d="M 504.242188 357.875 C 505.160156 360.398438 506.113281 363.011719 505.816406 365.742188 C 505.605469 367.195312 505.101562 368.589844 504.539062 369.957031 C 503.410156 372.953125 501.804688 375.832031 498.773438 377.257812 C 496.011719 377.347656 493.277344 377.882812 490.515625 377.941406 C 483.59375 378.058594 475.988281 376.664062 471.472656 370.875 C 468.261719 368.117188 467.460938 363.871094 467.519531 359.804688 C 468.113281 354.371094 472.394531 350.097656 476.433594 346.773438 C 480.207031 343.890625 484.929688 341.902344 489.742188 342.230469 C 494.792969 343.238281 498.832031 347.15625 501.507812 351.375 C 502.667969 353.421875 503.558594 355.617188 504.242188 357.875 Z M 504.242188 357.875 " fill-opacity="1" fill-rule="nonzero"/><path fill="#fff8eb" d="M 497.378906 380.347656 C 497.257812 381.238281 497.378906 382.214844 497.230469 383.078125 C 496.636719 394.328125 496.425781 405.609375 494.851562 416.800781 C 493.78125 424.636719 491.644531 432.265625 490.695312 440.132812 C 489.058594 452.601562 488.851562 465.21875 489.089844 477.773438 C 489.355469 485.34375 488.316406 492.824219 487.335938 500.304688 C 485.730469 510.578125 483.445312 521.472656 476.34375 529.484375 C 473.820312 531.890625 471.117188 534.175781 468.234375 536.136719 C 466.511719 537.472656 464.519531 538.421875 462.855469 539.816406 C 462.382812 537.265625 461.578125 534.742188 460.628906 532.304688 C 461.402344 531.355469 461.28125 529.277344 461.847656 528.152344 C 463.511719 523.253906 464.757812 518.292969 465.382812 513.160156 C 467.074219 502.5625 468.175781 491.875 468.351562 481.128906 C 469.007812 470.324219 468.917969 459.398438 466.957031 448.710938 C 466.75 447.671875 466.570312 446.664062 466.363281 445.65625 C 466.925781 445.359375 467.3125 444.765625 467.195312 444.082031 C 467.222656 443.429688 467.609375 442.863281 467.789062 442.242188 C 468.707031 439.242188 470.222656 436.421875 471.351562 433.484375 C 473.253906 429.03125 475.421875 424.695312 476.761719 420.035156 C 478.214844 415.109375 478.570312 410.089844 479.316406 404.984375 C 479.96875 400.472656 480.800781 395.929688 480.800781 391.328125 C 481.039062 387.53125 481.277344 383.699219 480.742188 379.929688 C 483.503906 380.613281 486.386719 380.820312 489.238281 380.878906 C 491.941406 381.027344 494.613281 380.523438 497.378906 380.347656 Z M 497.378906 380.347656 " fill-opacity="1" fill-rule="nonzero"/><path fill="#fff8eb" d="M 506.4375 422.617188 C 507.777344 424.371094 508.667969 426.953125 507.449219 428.972656 C 506.320312 430.308594 504.539062 430.871094 503.023438 431.613281 C 498.179688 433.871094 496.308594 432.324219 495.03125 432.058594 C 495.921875 427.457031 496.902344 422.855469 497.644531 418.195312 C 497.914062 418.195312 498.179688 418.105469 498.476562 417.929688 C 502.070312 418.015625 504.121094 420.183594 506.4375 422.617188 Z M 506.4375 422.617188 " fill-opacity="1" fill-rule="nonzero"/><path fill="#fff8eb" d="M 501.566406 435.292969 C 501.507812 435.738281 501.449219 436.183594 501.328125 436.539062 C 501.03125 437.90625 500.644531 439.273438 500.378906 440.636719 C 498.65625 447.496094 496.992188 454.472656 495.210938 461.359375 C 494.496094 464.652344 493.484375 467.949219 492.148438 471.066406 C 492.089844 471.273438 492 471.449219 491.941406 471.660156 C 491.941406 471.390625 491.941406 471.152344 491.941406 470.886719 C 492 461.296875 492.269531 451.679688 493.367188 442.121094 C 493.664062 439.71875 494.019531 437.371094 494.464844 434.996094 C 495.210938 435.414062 496.191406 435.621094 496.871094 435.710938 C 498.359375 435.886719 499.992188 435.710938 501.566406 435.292969 Z M 501.566406 435.292969 " fill-opacity="1" fill-rule="nonzero"/><path fill="#fff8eb" d="M 453.082031 522.570312 C 456.320312 530.820312 463.125 540.617188 458.90625 549.554688 C 456.230469 555.105469 450.941406 559.320312 444.761719 560.003906 C 438.347656 559.140625 432.820312 554.601562 428.808594 549.792969 C 424.949219 543.675781 420.90625 537.5625 418.261719 530.792969 C 415.410156 523.015625 412.796875 515.117188 410.539062 507.132812 C 410.269531 505.914062 409.972656 504.667969 409.707031 503.453125 C 409.738281 503.097656 409.675781 502.710938 409.46875 502.414062 C 407.953125 495.824219 406.4375 489.144531 405.785156 482.40625 C 404.953125 474.332031 403.199219 466.34375 403.050781 458.210938 C 402.429688 447.496094 403.855469 436.808594 403.707031 426.089844 C 403.707031 412.851562 402.367188 399.492188 398.625 386.726562 C 397.851562 384.058594 397.019531 381.386719 396.128906 378.773438 C 396.664062 378.773438 397.167969 378.773438 397.703125 378.773438 C 403.707031 379.097656 409.558594 377.761719 415.441406 376.664062 C 415.441406 376.722656 415.46875 376.785156 415.46875 376.871094 C 415.828125 381.980469 417.878906 386.816406 418.472656 391.894531 C 418.738281 396.734375 419.75 401.421875 420.757812 406.144531 C 421.917969 411.929688 422.925781 417.691406 424.324219 423.449219 C 426.226562 434.609375 427.324219 445.890625 430.355469 456.816406 C 433.621094 468.511719 435.851562 480.445312 439.800781 491.933594 C 443.21875 502.53125 448.683594 512.328125 453.082031 522.570312 Z M 453.082031 522.570312 " fill-opacity="1" fill-rule="nonzero"/><path fill="#fff8eb" d="M 405.753906 499.710938 C 404.953125 499.089844 404.152344 498.464844 403.378906 497.753906 C 402.398438 496.652344 401.566406 495.40625 400.46875 494.398438 C 396.636719 490.300781 392.742188 486.144531 389.445312 481.601562 C 389.5625 481.515625 389.652344 481.394531 389.742188 481.335938 C 392.773438 478.070312 393.929688 473.46875 393.664062 469.105469 C 393.871094 465.453125 391.554688 462.367188 389.238281 459.785156 C 385.910156 456.636719 381.128906 455.746094 376.460938 455.808594 C 376.195312 454.945312 375.480469 454.203125 375.214844 453.34375 C 374.027344 450.316406 373.3125 447.167969 372.542969 443.992188 C 369.421875 432.414062 367.015625 420.660156 363.210938 409.289062 C 361.3125 404.300781 360.152344 399.078125 358.011719 394.179688 C 357.449219 393.320312 357.03125 391.507812 356.320312 390.289062 C 363.6875 387.113281 370.371094 382.691406 374.203125 375.300781 C 374.234375 375.269531 374.265625 375.210938 374.265625 375.179688 C 375.125 375.535156 375.988281 375.863281 376.847656 376.160156 C 380.5625 377.644531 384.425781 378.296875 388.347656 378.566406 C 389.980469 386.90625 391.703125 395.25 394.554688 403.324219 C 396.339844 407.628906 397.703125 412.257812 400.378906 416.085938 C 400.644531 420.363281 400.707031 424.667969 400.617188 428.941406 C 400.644531 438.054688 399.488281 447.285156 399.902344 456.429688 C 399.933594 464.117188 401.328125 471.6875 402.28125 479.289062 C 403.289062 486.117188 404.003906 493.03125 405.753906 499.710938 Z M 405.753906 499.710938 " fill-opacity="1" fill-rule="nonzero"/><path fill="#fff8eb" d="M 385.703125 262.941406 C 391.347656 269.976562 395.417969 279.058594 394.40625 288.230469 C 393.664062 291.855469 393.632812 295.832031 390.992188 298.679688 C 388.316406 303.015625 383.890625 305.835938 379.523438 308.300781 C 378.039062 309.160156 375.632812 308.746094 374.769531 310.347656 C 370.847656 312.515625 366.898438 314.832031 362.558594 316.105469 C 356.171875 317.738281 349.578125 318.539062 342.949219 318.242188 C 332.078125 318.09375 321.054688 313.554688 314.371094 304.765625 C 310.417969 300.226562 308.488281 295 307.863281 289.0625 C 307.09375 282.710938 307.6875 276.210938 309.765625 270.183594 C 312.617188 261.8125 319.304688 255.015625 326.671875 250.351562 C 336.324219 244.773438 348.269531 243.019531 358.992188 246.554688 C 369.125 249.460938 379.046875 254.539062 385.703125 262.941406 Z M 385.703125 262.941406 " fill-opacity="1" fill-rule="nonzero"/><path fill="#fff8eb" d="M 376.433594 320.292969 C 376.640625 321.0625 376.640625 321.925781 376.761719 322.757812 C 375.71875 323.4375 374.710938 324.152344 373.699219 324.953125 C 369.363281 327.804688 365.886719 331.660156 363.210938 336.085938 C 361.875 337.808594 360.777344 339.675781 359.914062 341.664062 C 359.796875 341.546875 359.648438 341.429688 359.527344 341.308594 C 355.160156 336.382812 348.773438 333.828125 342.386719 331.988281 C 342.121094 329.910156 340.902344 326.882812 340.722656 325.695312 C 340.367188 324.152344 339.890625 322.609375 339.414062 321.0625 C 340.367188 321.152344 341.316406 321.183594 342.269531 321.210938 C 353.734375 321.777344 365.441406 319.640625 375.273438 313.523438 C 375.78125 315.75 376.226562 318.007812 376.433594 320.292969 Z M 376.433594 320.292969 " fill-opacity="1" fill-rule="nonzero"/><path fill="#fff8eb" d="M 371.5625 373.875 C 371.441406 374.082031 371.324219 374.320312 371.234375 374.585938 C 366.746094 382.601562 358.25 386.609375 349.933594 389.578125 C 345.359375 391.269531 340.632812 392.429688 335.730469 392.636719 C 329.9375 393.347656 324.054688 393.703125 318.234375 392.933594 C 310.746094 391.804688 303.140625 388.210938 298.566406 382.007812 C 293.335938 373.429688 296.488281 361.4375 300.230469 352.796875 C 301.773438 350.007812 303.824219 347.542969 305.488281 344.8125 C 308.371094 341.367188 312.144531 338.785156 316.066406 336.679688 C 321.414062 333.414062 328.007812 332.402344 334.1875 333.085938 C 340.722656 334.246094 347.140625 336.382812 352.933594 339.589844 C 355.339844 340.746094 356.824219 343.0625 358.785156 344.753906 C 357.242188 349.828125 357.183594 355.320312 358.992188 360.398438 C 360.953125 366.511719 365.917969 370.964844 371.5625 373.875 Z M 371.5625 373.875 " fill-opacity="1" fill-rule="nonzero"/><path fill="#fff8eb" d="M 418.917969 563.566406 C 416.511719 564.871094 413.957031 565.644531 411.132812 565.96875 C 403.230469 566.980469 395.832031 563.296875 389.296875 559.289062 C 383.832031 557.035156 379.492188 553.054688 375.421875 548.929688 C 366.898438 539.847656 360.421875 529.011719 354.6875 518.027344 C 353.347656 515.414062 351.835938 512.890625 350.320312 510.398438 C 346.515625 503.808594 343.902344 496.59375 341.703125 489.320312 C 338.910156 479.851562 337.039062 470.027344 336.175781 460.199219 C 335.703125 452.214844 337.128906 444.257812 336.265625 436.273438 C 335.582031 425.527344 334.960938 414.691406 332.789062 404.125 C 332.226562 401.421875 331.484375 398.78125 330.890625 396.109375 C 332.433594 395.992188 333.949219 395.84375 335.464844 395.632812 C 340.929688 395.398438 346.21875 394.179688 351.328125 392.25 C 352.070312 391.984375 352.816406 391.714844 353.558594 391.417969 C 353.707031 391.746094 353.882812 392.070312 354.0625 392.367188 C 355.429688 395.457031 356.707031 398.632812 357.746094 401.839844 C 361.191406 412.882812 364.9375 423.714844 367.164062 435.144531 C 368.621094 438.828125 370.640625 451.234375 373.285156 455.984375 C 372.570312 456.042969 371.859375 456.164062 371.175781 456.253906 C 368.203125 456.699219 366.066406 458.953125 364.222656 461.121094 C 361.429688 464 360.597656 468.15625 360.65625 472.042969 C 360.597656 479.140625 367.429688 484.839844 374.203125 485.375 C 374.382812 485.375 374.5625 485.402344 374.769531 485.402344 C 374.828125 485.523438 374.917969 485.640625 375.035156 485.789062 C 377.917969 490.210938 379.136719 495.378906 381.453125 500.097656 C 384.15625 505.945312 386.980469 511.765625 390.484375 517.167969 C 392.863281 521.648438 395.03125 526.222656 397.40625 530.703125 C 400.617188 537.382812 404.300781 543.824219 408.101562 550.148438 C 410.894531 554.957031 414.28125 560.269531 418.917969 563.566406 Z M 418.917969 563.566406 " fill-opacity="1" fill-rule="nonzero"/><path fill="#fff8eb" d="M 385.316406 460.40625 C 391.523438 464 392.386719 472.816406 388.375 478.398438 C 386.949219 478.664062 385.820312 479.851562 384.515625 480.476562 C 382.640625 481.367188 380.59375 482.136719 378.511719 482.34375 C 364.191406 484.335938 358.101562 468.78125 369.421875 460.109375 C 374.203125 457.707031 380.382812 458.625 385.316406 460.40625 Z M 385.316406 460.40625 " fill-opacity="1" fill-rule="nonzero"/><path fill="#fff8eb" d="M 438.496094 561.25 C 434.988281 564.367188 429.640625 564.457031 425.214844 563.417969 C 419.363281 561.578125 415.320312 556.441406 412.292969 551.363281 C 404.773438 539.757812 399.042969 527.171875 392.566406 515.03125 C 388.734375 509.03125 385.761719 502.5625 382.820312 496.121094 C 381.542969 492.410156 380.027344 488.789062 378.1875 485.34375 C 381.097656 485.046875 383.980469 484.214844 386.503906 482.730469 C 386.535156 482.761719 386.59375 482.761719 386.625 482.789062 C 386.683594 482.878906 386.710938 482.9375 386.773438 483.027344 C 390.160156 487.777344 394.167969 492.082031 398.179688 496.328125 C 400.199219 498.523438 401.984375 500.871094 404.507812 502.5625 C 405.398438 502.976562 406.054688 503.839844 406.855469 504.34375 C 408.28125 510.875 410.332031 517.253906 412.53125 523.550781 C 414.964844 530.910156 417.726562 538.242188 422.125 544.683594 C 424.265625 547.921875 425.867188 551.542969 428.71875 554.214844 C 431.601562 556.945312 434.839844 559.585938 438.496094 561.25 Z M 438.496094 561.25 " fill-opacity="1" fill-rule="nonzero"/><g clip-path="url(#4427c72329)"><path fill="#0a400e" d="M 146.449219 493.492188 C 145.3125 493.492188 144.253906 492.78125 143.859375 491.648438 C 140.355469 481.570312 137.441406 471.167969 135.199219 460.730469 C 134.878906 459.25 135.820312 457.792969 137.300781 457.472656 C 138.78125 457.15625 140.238281 458.097656 140.554688 459.578125 C 142.753906 469.796875 145.605469 479.980469 149.035156 489.851562 C 149.535156 491.28125 148.777344 492.84375 147.347656 493.339844 C 147.050781 493.441406 146.746094 493.492188 146.449219 493.492188 Z M 133.097656 431.480469 C 131.695312 431.480469 130.5 430.410156 130.371094 428.984375 C 129.652344 421.042969 129.289062 412.945312 129.289062 404.925781 C 129.289062 402.253906 129.332031 399.550781 129.410156 396.890625 C 129.457031 395.375 130.714844 394.183594 132.230469 394.230469 C 133.742188 394.277344 134.933594 395.539062 134.886719 397.054688 C 134.808594 399.660156 134.769531 402.308594 134.769531 404.925781 C 134.769531 412.78125 135.128906 420.710938 135.828125 428.492188 C 135.964844 430 134.855469 431.332031 133.347656 431.46875 C 133.265625 431.476562 133.179688 431.480469 133.097656 431.480469 Z M 135.015625 368.058594 C 134.878906 368.058594 134.738281 368.050781 134.601562 368.027344 C 133.105469 367.800781 132.074219 366.402344 132.304688 364.90625 C 133.910156 354.34375 136.183594 343.777344 139.058594 333.507812 C 139.46875 332.050781 140.980469 331.203125 142.4375 331.609375 C 143.894531 332.019531 144.746094 333.53125 144.335938 334.988281 C 141.519531 345.042969 139.292969 355.386719 137.722656 365.730469 C 137.515625 367.085938 136.347656 368.058594 135.015625 368.058594 Z M 152.128906 306.976562 C 151.777344 306.976562 151.417969 306.90625 151.074219 306.761719 C 149.679688 306.179688 149.019531 304.574219 149.601562 303.175781 C 153.714844 293.335938 158.480469 283.640625 163.769531 274.359375 C 164.519531 273.042969 166.191406 272.585938 167.507812 273.335938 C 168.820312 274.085938 169.28125 275.757812 168.53125 277.074219 C 163.351562 286.160156 158.683594 295.65625 154.660156 305.289062 C 154.21875 306.339844 153.203125 306.976562 152.128906 306.976562 Z M 152.128906 306.976562 " fill-opacity="1" fill-rule="nonzero"/></g><g clip-path="url(#62b2330fe3)"><path fill="#0a400e" d="M 393.222656 668.949219 C 391.144531 668.949219 389.042969 668.925781 386.972656 668.875 C 385.460938 668.839844 384.261719 667.585938 384.296875 666.070312 C 384.332031 664.558594 385.589844 663.359375 387.101562 663.394531 C 389.125 663.441406 391.1875 663.46875 393.222656 663.46875 C 402.625 663.46875 412.105469 662.957031 421.394531 661.949219 C 422.898438 661.785156 424.25 662.875 424.414062 664.378906 C 424.578125 665.882812 423.488281 667.234375 421.984375 667.398438 C 412.5 668.429688 402.820312 668.949219 393.222656 668.949219 Z M 352.496094 665.792969 C 352.355469 665.792969 352.210938 665.78125 352.066406 665.757812 C 340.542969 663.953125 329.042969 661.355469 317.878906 658.035156 C 316.429688 657.601562 315.601562 656.078125 316.035156 654.625 C 316.464844 653.175781 317.992188 652.347656 319.441406 652.78125 C 330.371094 656.03125 341.632812 658.574219 352.917969 660.34375 C 354.410156 660.574219 355.433594 661.976562 355.199219 663.472656 C 354.988281 664.828125 353.820312 665.792969 352.496094 665.792969 Z M 455.839844 661.394531 C 454.609375 661.394531 453.488281 660.554688 453.179688 659.304688 C 452.820312 657.835938 453.71875 656.351562 455.1875 655.988281 C 466.261719 653.261719 477.257812 649.761719 487.871094 645.582031 C 489.277344 645.027344 490.871094 645.71875 491.425781 647.128906 C 491.980469 648.535156 491.285156 650.128906 489.878906 650.683594 C 479.039062 654.953125 467.808594 658.527344 456.496094 661.3125 C 456.277344 661.367188 456.054688 661.394531 455.839844 661.394531 Z M 520.21875 636.042969 C 519.257812 636.042969 518.324219 635.535156 517.824219 634.632812 C 517.085938 633.3125 517.558594 631.644531 518.882812 630.90625 C 528.839844 625.351562 538.527344 619.074219 547.675781 612.238281 C 548.890625 611.332031 550.605469 611.582031 551.511719 612.796875 C 552.417969 614.007812 552.167969 615.726562 550.957031 616.632812 C 541.609375 623.609375 531.71875 630.023438 521.550781 635.695312 C 521.128906 635.929688 520.671875 636.042969 520.21875 636.042969 Z M 575.675781 594.632812 C 574.960938 594.632812 574.25 594.359375 573.714844 593.808594 C 572.65625 592.722656 572.675781 590.988281 573.761719 589.929688 C 581.929688 581.953125 589.640625 573.355469 596.679688 564.378906 C 597.617188 563.1875 599.339844 562.980469 600.527344 563.914062 C 601.71875 564.847656 601.925781 566.570312 600.992188 567.761719 C 593.804688 576.929688 585.929688 585.707031 577.589844 593.855469 C 577.054688 594.375 576.363281 594.632812 575.675781 594.632812 Z M 575.675781 594.632812 " fill-opacity="1" fill-rule="nonzero"/></g><g clip-path="url(#fb383f1f2a)"><path fill="#0a400e" d="M 627.605469 292.226562 C 626.597656 292.226562 625.625 291.667969 625.148438 290.699219 C 620.53125 281.339844 615.285156 272.15625 609.554688 263.410156 C 608.726562 262.144531 609.082031 260.445312 610.347656 259.613281 C 611.613281 258.785156 613.3125 259.140625 614.140625 260.40625 C 619.992188 269.335938 625.347656 278.714844 630.0625 288.273438 C 630.730469 289.632812 630.171875 291.273438 628.816406 291.945312 C 628.425781 292.136719 628.015625 292.226562 627.605469 292.226562 Z M 592.863281 239.179688 C 592.085938 239.179688 591.3125 238.847656 590.769531 238.207031 C 584.03125 230.222656 576.730469 222.570312 569.074219 215.457031 C 567.96875 214.425781 567.902344 212.691406 568.933594 211.582031 C 569.964844 210.472656 571.695312 210.40625 572.804688 211.4375 C 580.621094 218.703125 588.074219 226.519531 594.957031 234.671875 C 595.933594 235.828125 595.789062 237.554688 594.632812 238.53125 C 594.117188 238.96875 593.488281 239.179688 592.863281 239.179688 Z M 546.402344 196.007812 C 545.84375 196.007812 545.28125 195.839844 544.792969 195.488281 C 536.328125 189.34375 527.40625 183.664062 518.273438 178.605469 C 516.949219 177.871094 516.472656 176.203125 517.203125 174.878906 C 517.9375 173.554688 519.605469 173.074219 520.929688 173.808594 C 530.253906 178.976562 539.367188 184.777344 548.011719 191.050781 C 549.238281 191.9375 549.507812 193.652344 548.621094 194.878906 C 548.085938 195.617188 547.25 196.007812 546.402344 196.007812 Z M 490.921875 165.273438 C 490.578125 165.273438 490.230469 165.210938 489.894531 165.074219 C 480.203125 161.160156 470.171875 157.8125 460.074219 155.113281 C 458.613281 154.722656 457.746094 153.222656 458.136719 151.757812 C 458.527344 150.296875 460.027344 149.425781 461.488281 149.816406 C 471.800781 152.570312 482.046875 155.996094 491.945312 159.992188 C 493.351562 160.558594 494.027344 162.15625 493.460938 163.558594 C 493.03125 164.625 492.003906 165.273438 490.921875 165.273438 Z M 334.886719 152.921875 C 333.636719 152.921875 332.507812 152.0625 332.21875 150.789062 C 331.882812 149.316406 332.804688 147.84375 334.28125 147.507812 C 344.664062 145.140625 355.320312 143.382812 365.953125 142.292969 C 367.457031 142.136719 368.804688 143.234375 368.957031 144.738281 C 369.113281 146.246094 368.019531 147.589844 366.511719 147.746094 C 356.101562 148.816406 345.667969 150.535156 335.5 152.855469 C 335.292969 152.902344 335.089844 152.921875 334.886719 152.921875 Z M 429.636719 148.902344 C 429.511719 148.902344 429.382812 148.890625 429.253906 148.875 C 418.941406 147.433594 408.398438 146.609375 397.921875 146.425781 C 396.410156 146.398438 395.203125 145.148438 395.230469 143.632812 C 395.257812 142.136719 396.480469 140.941406 397.96875 140.941406 C 397.988281 140.941406 398.003906 140.941406 398.019531 140.941406 C 408.714844 141.132812 419.480469 141.976562 430.011719 143.445312 C 431.511719 143.652344 432.558594 145.039062 432.347656 146.539062 C 432.15625 147.910156 430.980469 148.902344 429.636719 148.902344 Z M 429.636719 148.902344 " fill-opacity="1" fill-rule="nonzero"/></g><path fill="#dffac5" d="M 584.992188 404.925781 C 584.992188 408.0625 584.917969 411.203125 584.761719 414.335938 C 584.609375 417.472656 584.378906 420.601562 584.070312 423.726562 C 583.761719 426.851562 583.378906 429.96875 582.917969 433.074219 C 582.457031 436.179688 581.921875 439.269531 581.308594 442.351562 C 580.695312 445.429688 580.007812 448.492188 579.246094 451.539062 C 578.484375 454.582031 577.648438 457.609375 576.734375 460.613281 C 575.824219 463.617188 574.839844 466.597656 573.78125 469.550781 C 572.726562 472.507812 571.597656 475.4375 570.394531 478.335938 C 569.195312 481.238281 567.921875 484.109375 566.582031 486.945312 C 565.238281 489.785156 563.828125 492.585938 562.347656 495.355469 C 560.871094 498.125 559.324219 500.855469 557.710938 503.550781 C 556.097656 506.242188 554.417969 508.894531 552.675781 511.503906 C 550.929688 514.113281 549.125 516.679688 547.253906 519.203125 C 545.382812 521.722656 543.453125 524.199219 541.464844 526.625 C 539.472656 529.050781 537.421875 531.429688 535.316406 533.753906 C 533.207031 536.082031 531.042969 538.355469 528.824219 540.574219 C 526.605469 542.792969 524.332031 544.957031 522.007812 547.066406 C 519.683594 549.175781 517.304688 551.226562 514.878906 553.21875 C 512.453125 555.210938 509.980469 557.140625 507.460938 559.011719 C 504.9375 560.878906 502.375 562.6875 499.765625 564.433594 C 497.15625 566.175781 494.503906 567.855469 491.8125 569.46875 C 489.121094 571.082031 486.390625 572.628906 483.621094 574.109375 C 480.855469 575.589844 478.050781 577 475.214844 578.34375 C 472.378906 579.6875 469.507812 580.957031 466.609375 582.160156 C 463.710938 583.363281 460.78125 584.492188 457.828125 585.546875 C 454.871094 586.605469 451.894531 587.589844 448.890625 588.503906 C 445.886719 589.414062 442.863281 590.25 439.820312 591.011719 C 436.773438 591.777344 433.714844 592.464844 430.636719 593.078125 C 427.558594 593.6875 424.464844 594.226562 421.359375 594.6875 C 418.257812 595.148438 415.140625 595.53125 412.019531 595.839844 C 408.894531 596.148438 405.765625 596.378906 402.632812 596.53125 C 399.496094 596.6875 396.359375 596.761719 393.222656 596.761719 C 390.082031 596.761719 386.949219 596.6875 383.8125 596.53125 C 380.679688 596.378906 377.550781 596.148438 374.425781 595.839844 C 371.300781 595.53125 368.1875 595.148438 365.082031 594.6875 C 361.980469 594.226562 358.886719 593.6875 355.808594 593.078125 C 352.730469 592.464844 349.671875 591.777344 346.625 591.011719 C 343.582031 590.25 340.558594 589.414062 337.554688 588.503906 C 334.550781 587.589844 331.570312 586.605469 328.617188 585.546875 C 325.660156 584.492188 322.734375 583.363281 319.835938 582.160156 C 316.933594 580.957031 314.066406 579.6875 311.230469 578.34375 C 308.390625 577 305.589844 575.589844 302.820312 574.109375 C 300.054688 572.628906 297.324219 571.082031 294.632812 569.46875 C 291.941406 567.855469 289.289062 566.175781 286.679688 564.433594 C 284.070312 562.6875 281.503906 560.878906 278.984375 559.011719 C 276.464844 557.140625 273.988281 555.210938 271.5625 553.21875 C 269.136719 551.226562 266.761719 549.175781 264.4375 547.066406 C 262.113281 544.957031 259.839844 542.792969 257.621094 540.574219 C 255.402344 538.355469 253.238281 536.082031 251.128906 533.753906 C 249.023438 531.429688 246.972656 529.050781 244.980469 526.625 C 242.992188 524.199219 241.058594 521.722656 239.191406 519.203125 C 237.320312 516.679688 235.515625 514.113281 233.769531 511.503906 C 232.027344 508.894531 230.347656 506.242188 228.734375 503.550781 C 227.121094 500.855469 225.574219 498.125 224.09375 495.355469 C 222.617188 492.585938 221.207031 489.785156 219.863281 486.945312 C 218.523438 484.109375 217.25 481.238281 216.050781 478.335938 C 214.847656 475.4375 213.71875 472.507812 212.660156 469.550781 C 211.605469 466.597656 210.621094 463.617188 209.710938 460.613281 C 208.796875 457.609375 207.960938 454.582031 207.199219 451.539062 C 206.4375 448.492188 205.75 445.429688 205.136719 442.351562 C 204.523438 439.269531 203.988281 436.179688 203.527344 433.074219 C 203.066406 429.96875 202.683594 426.851562 202.375 423.726562 C 202.066406 420.601562 201.835938 417.472656 201.683594 414.335938 C 201.527344 411.203125 201.453125 408.0625 201.453125 404.925781 C 201.453125 401.785156 201.527344 398.648438 201.683594 395.511719 C 201.835938 392.375 202.066406 389.246094 202.375 386.121094 C 202.683594 382.996094 203.066406 379.882812 203.527344 376.777344 C 203.988281 373.671875 204.523438 370.578125 205.136719 367.5 C 205.75 364.417969 206.4375 361.355469 207.199219 358.3125 C 207.960938 355.265625 208.796875 352.242188 209.710938 349.238281 C 210.621094 346.230469 211.605469 343.253906 212.660156 340.296875 C 213.71875 337.339844 214.847656 334.410156 216.050781 331.511719 C 217.25 328.609375 218.523438 325.742188 219.863281 322.902344 C 221.207031 320.066406 222.617188 317.261719 224.09375 314.492188 C 225.574219 311.722656 227.121094 308.992188 228.734375 306.300781 C 230.347656 303.605469 232.027344 300.957031 233.769531 298.34375 C 235.515625 295.734375 237.320312 293.167969 239.191406 290.644531 C 241.058594 288.125 242.992188 285.648438 244.980469 283.222656 C 246.972656 280.796875 249.023438 278.417969 251.128906 276.09375 C 253.238281 273.765625 255.402344 271.492188 257.621094 269.273438 C 259.839844 267.054688 262.113281 264.890625 264.4375 262.78125 C 266.761719 260.671875 269.136719 258.621094 271.5625 256.632812 C 273.988281 254.640625 276.464844 252.707031 278.984375 250.839844 C 281.503906 248.96875 284.070312 247.160156 286.679688 245.417969 C 289.289062 243.671875 291.941406 241.992188 294.632812 240.378906 C 297.324219 238.765625 300.054688 237.21875 302.820312 235.738281 C 305.589844 234.257812 308.390625 232.847656 311.230469 231.503906 C 314.066406 230.164062 316.933594 228.890625 319.835938 227.6875 C 322.734375 226.488281 325.660156 225.359375 328.617188 224.300781 C 331.570312 223.242188 334.550781 222.257812 337.554688 221.347656 C 340.558594 220.433594 343.582031 219.597656 346.625 218.835938 C 349.671875 218.070312 352.730469 217.382812 355.808594 216.773438 C 358.886719 216.160156 361.980469 215.621094 365.082031 215.164062 C 368.1875 214.703125 371.300781 214.316406 374.425781 214.007812 C 377.550781 213.703125 380.679688 213.472656 383.8125 213.316406 C 386.949219 213.164062 390.082031 213.085938 393.222656 213.085938 C 396.359375 213.085938 399.496094 213.164062 402.632812 213.316406 C 405.765625 213.472656 408.894531 213.703125 412.019531 214.007812 C 415.140625 214.316406 418.257812 214.703125 421.359375 215.164062 C 424.464844 215.621094 427.558594 216.160156 430.636719 216.773438 C 433.714844 217.382812 436.773438 218.070312 439.820312 218.835938 C 442.863281 219.597656 445.886719 220.433594 448.890625 221.347656 C 451.894531 222.257812 454.871094 223.242188 457.828125 224.300781 C 460.78125 225.359375 463.710938 226.488281 466.609375 227.6875 C 469.507812 228.890625 472.378906 230.164062 475.214844 231.503906 C 478.050781 232.847656 480.855469 234.257812 483.621094 235.738281 C 486.390625 237.21875 489.121094 238.765625 491.8125 240.378906 C 494.503906 241.992188 497.15625 243.671875 499.765625 245.417969 C 502.375 247.160156 504.9375 248.96875 507.460938 250.839844 C 509.980469 252.707031 512.453125 254.640625 514.878906 256.632812 C 517.304688 258.621094 519.683594 260.671875 522.007812 262.78125 C 524.332031 264.890625 526.605469 267.054688 528.824219 269.273438 C 531.042969 271.492188 533.207031 273.765625 535.316406 276.09375 C 537.421875 278.417969 539.472656 280.796875 541.464844 283.222656 C 543.453125 285.648438 545.382812 288.125 547.253906 290.644531 C 549.125 293.167969 550.929688 295.734375 552.675781 298.34375 C 554.417969 300.957031 556.097656 303.605469 557.710938 306.300781 C 559.324219 308.992188 560.871094 311.722656 562.347656 314.492188 C 563.828125 317.261719 565.238281 320.066406 566.582031 322.902344 C 567.921875 325.742188 569.195312 328.609375 570.394531 331.511719 C 571.597656 334.410156 572.726562 337.339844 573.78125 340.296875 C 574.839844 343.253906 575.824219 346.230469 576.734375 349.238281 C 577.648438 352.242188 578.484375 355.265625 579.246094 358.3125 C 580.007812 361.355469 580.695312 364.417969 581.308594 367.5 C 581.921875 370.578125 582.457031 373.671875 582.917969 376.777344 C 583.378906 379.882812 583.761719 382.996094 584.070312 386.121094 C 584.378906 389.246094 584.609375 392.375 584.761719 395.511719 C 584.917969 398.648438 584.992188 401.785156 584.992188 404.925781 Z M 584.992188 404.925781 " fill-opacity="1" fill-rule="nonzero"/><path fill="#ffffff" d="M 193.5625 489.671875 L 388.019531 489.671875 L 388.019531 615.539062 L 193.5625 615.539062 Z M 193.5625 489.671875 " fill-opacity="1" fill-rule="nonzero"/><path fill="#0a400e" d="M 388.019531 618.28125 L 193.5625 618.28125 C 192.050781 618.28125 190.824219 617.050781 190.824219 615.539062 L 190.824219 489.671875 C 190.824219 488.160156 192.050781 486.929688 193.5625 486.929688 L 388.019531 486.929688 C 389.535156 486.929688 390.761719 488.160156 390.761719 489.671875 L 390.761719 615.539062 C 390.761719 617.050781 389.535156 618.28125 388.019531 618.28125 Z M 196.304688 612.796875 L 385.28125 612.796875 L 385.28125 492.414062 L 196.304688 492.414062 Z M 196.304688 612.796875 " fill-opacity="1" fill-rule="nonzero"/><path fill="#a6f28c" d="M 178.242188 474.824219 L 210.082031 474.824219 L 210.082031 625.464844 L 178.242188 625.464844 Z M 178.242188 474.824219 " fill-opacity="1" fill-rule="nonzero"/><path fill="#0a400e" d="M 210.082031 628.203125 L 178.242188 628.203125 C 176.726562 628.203125 175.5 626.976562 175.5 625.464844 L 175.5 474.824219 C 175.5 473.308594 176.726562 472.082031 178.242188 472.082031 L 210.082031 472.082031 C 211.597656 472.082031 212.824219 473.308594 212.824219 474.824219 L 212.824219 625.464844 C 212.824219 626.976562 211.597656 628.203125 210.082031 628.203125 Z M 180.980469 622.722656 L 207.34375 622.722656 L 207.34375 477.566406 L 180.980469 477.566406 Z M 180.980469 622.722656 " fill-opacity="1" fill-rule="nonzero"/><path fill="#a6f28c" d="M 371.386719 474.824219 L 403.230469 474.824219 L 403.230469 625.464844 L 371.386719 625.464844 Z M 371.386719 474.824219 " fill-opacity="1" fill-rule="nonzero"/><path fill="#0a400e" d="M 403.230469 628.203125 L 371.386719 628.203125 C 369.875 628.203125 368.648438 626.976562 368.648438 625.464844 L 368.648438 474.824219 C 368.648438 473.308594 369.875 472.082031 371.386719 472.082031 L 403.230469 472.082031 C 404.742188 472.082031 405.96875 473.308594 405.96875 474.824219 L 405.96875 625.464844 C 405.96875 626.976562 404.742188 628.203125 403.230469 628.203125 Z M 374.128906 622.722656 L 400.488281 622.722656 L 400.488281 477.566406 L 374.128906 477.566406 Z M 374.128906 622.722656 " fill-opacity="1" fill-rule="nonzero"/><path fill="#a6f28c" d="M 178.242188 474.824219 L 403.226562 474.824219 L 403.226562 506.675781 L 178.242188 506.675781 Z M 178.242188 474.824219 " fill-opacity="1" fill-rule="nonzero"/><path fill="#0a400e" d="M 403.230469 509.417969 L 178.242188 509.417969 C 176.726562 509.417969 175.5 508.191406 175.5 506.675781 L 175.5 474.824219 C 175.5 473.308594 176.726562 472.082031 178.242188 472.082031 L 403.230469 472.082031 C 404.742188 472.082031 405.96875 473.308594 405.96875 474.824219 L 405.96875 506.675781 C 405.96875 508.191406 404.742188 509.417969 403.230469 509.417969 Z M 180.980469 503.933594 L 400.488281 503.933594 L 400.488281 477.566406 L 180.980469 477.566406 Z M 180.980469 503.933594 " fill-opacity="1" fill-rule="nonzero"/><path fill="#a6f28c" d="M 178.242188 534.21875 L 403.226562 534.21875 L 403.226562 566.070312 L 178.242188 566.070312 Z M 178.242188 534.21875 " fill-opacity="1" fill-rule="nonzero"/><path fill="#0a400e" d="M 403.230469 568.8125 L 178.242188 568.8125 C 176.726562 568.8125 175.5 567.582031 175.5 566.070312 L 175.5 534.21875 C 175.5 532.703125 176.726562 531.476562 178.242188 531.476562 L 403.230469 531.476562 C 404.742188 531.476562 405.96875 532.703125 405.96875 534.21875 L 405.96875 566.070312 C 405.96875 567.582031 404.742188 568.8125 403.230469 568.8125 Z M 180.980469 563.328125 L 400.488281 563.328125 L 400.488281 536.957031 L 180.980469 536.957031 Z M 180.980469 563.328125 " fill-opacity="1" fill-rule="nonzero"/><path fill="#a6f28c" d="M 178.242188 593.609375 L 403.226562 593.609375 L 403.226562 625.464844 L 178.242188 625.464844 Z M 178.242188 593.609375 " fill-opacity="1" fill-rule="nonzero"/><path fill="#0a400e" d="M 403.230469 628.203125 L 178.242188 628.203125 C 176.726562 628.203125 175.5 626.976562 175.5 625.464844 L 175.5 593.609375 C 175.5 592.097656 176.726562 590.871094 178.242188 590.871094 L 403.230469 590.871094 C 404.742188 590.871094 405.96875 592.097656 405.96875 593.609375 L 405.96875 625.464844 C 405.96875 626.976562 404.742188 628.203125 403.230469 628.203125 Z M 180.980469 622.722656 L 400.488281 622.722656 L 400.488281 596.351562 L 180.980469 596.351562 Z M 180.980469 622.722656 " fill-opacity="1" fill-rule="nonzero"/><path fill="#ffffff" d="M 243.378906 519.203125 C 243.207031 523.496094 242.035156 527.722656 239.695312 531.328125 C 238.476562 533.207031 237.777344 535.386719 237.777344 537.714844 C 237.777344 544.8125 244.253906 550.566406 252.246094 550.566406 C 260.238281 550.566406 266.714844 544.8125 266.714844 537.714844 C 266.714844 535.386719 266.015625 533.207031 264.796875 531.328125 C 262.457031 527.722656 261.285156 523.496094 261.113281 519.203125 Z M 243.378906 519.203125 " fill-opacity="1" fill-rule="nonzero"/><path fill="#0a400e" d="M 252.246094 553.308594 C 242.757812 553.308594 235.035156 546.3125 235.035156 537.714844 C 235.035156 534.941406 235.851562 532.214844 237.398438 529.835938 C 239.359375 526.8125 240.480469 523.097656 240.644531 519.09375 C 240.703125 517.582031 241.984375 516.40625 243.492188 516.464844 C 245.003906 516.527344 246.179688 517.804688 246.117188 519.316406 C 245.917969 524.304688 244.488281 528.972656 241.992188 532.820312 C 241.027344 534.308594 240.515625 536 240.515625 537.714844 C 240.515625 543.289062 245.777344 547.828125 252.246094 547.828125 C 258.714844 547.828125 263.976562 543.289062 263.976562 537.714844 C 263.976562 536 263.464844 534.308594 262.5 532.820312 C 260.003906 528.972656 258.578125 524.304688 258.375 519.316406 C 258.3125 517.804688 259.488281 516.527344 261 516.464844 C 262.515625 516.40625 263.789062 517.582031 263.851562 519.09375 C 264.011719 523.097656 265.136719 526.8125 267.097656 529.835938 C 268.640625 532.214844 269.457031 534.941406 269.457031 537.714844 C 269.457031 546.3125 261.734375 553.308594 252.246094 553.308594 Z M 252.246094 553.308594 " fill-opacity="1" fill-rule="nonzero"/><path fill="#ffd557" d="M 224.996094 519.878906 C 223.613281 519.878906 222.496094 518.710938 222.585938 517.328125 C 223.671875 500.683594 235.34375 486.90625 252.246094 486.90625 C 269.148438 486.90625 280.820312 500.683594 281.90625 517.328125 C 281.996094 518.710938 280.878906 519.878906 279.492188 519.878906 Z M 224.996094 519.878906 " fill-opacity="1" fill-rule="nonzero"/><path fill="#0a400e" d="M 279.496094 522.621094 L 225 522.621094 C 223.574219 522.621094 222.199219 522.023438 221.226562 520.984375 C 220.261719 519.953125 219.757812 518.554688 219.851562 517.152344 C 220.429688 508.246094 223.851562 500.023438 229.484375 494.003906 C 235.414062 487.660156 243.5 484.167969 252.246094 484.167969 C 260.992188 484.167969 269.078125 487.660156 275.007812 494.003906 C 280.640625 500.023438 284.058594 508.246094 284.640625 517.152344 C 284.734375 518.554688 284.230469 519.953125 283.265625 520.984375 C 282.292969 522.023438 280.917969 522.621094 279.496094 522.621094 Z M 225.34375 517.136719 L 279.148438 517.136719 C 277.945312 501.1875 266.683594 489.648438 252.246094 489.648438 C 237.808594 489.648438 226.546875 501.1875 225.34375 517.136719 Z M 225.34375 517.136719 " fill-opacity="1" fill-rule="nonzero"/><path fill="#ffffff" d="M 320.472656 519.203125 C 320.296875 523.496094 319.125 527.722656 316.789062 531.328125 C 315.566406 533.207031 314.867188 535.386719 314.867188 537.714844 C 314.867188 544.8125 321.347656 550.566406 329.339844 550.566406 C 337.328125 550.566406 343.808594 544.8125 343.808594 537.714844 C 343.808594 535.386719 343.109375 533.207031 341.890625 531.328125 C 339.550781 527.722656 338.378906 523.496094 338.203125 519.203125 Z M 320.472656 519.203125 " fill-opacity="1" fill-rule="nonzero"/><path fill="#0a400e" d="M 329.339844 553.308594 C 319.847656 553.308594 312.128906 546.3125 312.128906 537.714844 C 312.128906 534.941406 312.945312 532.214844 314.488281 529.835938 C 316.449219 526.8125 317.574219 523.097656 317.734375 519.09375 C 317.796875 517.582031 319.074219 516.40625 320.582031 516.464844 C 322.097656 516.527344 323.273438 517.804688 323.210938 519.316406 C 323.007812 524.304688 321.582031 528.972656 319.085938 532.820312 C 318.121094 534.308594 317.609375 536 317.609375 537.714844 C 317.609375 543.289062 322.871094 547.828125 329.339844 547.828125 C 335.804688 547.828125 341.070312 543.289062 341.070312 537.714844 C 341.070312 536 340.558594 534.308594 339.589844 532.820312 C 337.09375 528.972656 335.667969 524.304688 335.464844 519.316406 C 335.40625 517.804688 336.582031 516.527344 338.09375 516.464844 C 339.609375 516.40625 340.882812 517.582031 340.941406 519.09375 C 341.105469 523.097656 342.226562 526.8125 344.1875 529.835938 C 345.734375 532.214844 346.550781 534.941406 346.550781 537.714844 C 346.546875 546.3125 338.828125 553.308594 329.339844 553.308594 Z M 329.339844 553.308594 " fill-opacity="1" fill-rule="nonzero"/><path fill="#ffd557" d="M 302.089844 519.878906 C 300.703125 519.878906 299.585938 518.710938 299.675781 517.328125 C 300.761719 500.683594 312.433594 486.90625 329.339844 486.90625 C 346.242188 486.90625 357.914062 500.683594 359 517.328125 C 359.089844 518.710938 357.972656 519.878906 356.585938 519.878906 Z M 302.089844 519.878906 " fill-opacity="1" fill-rule="nonzero"/><path fill="#0a400e" d="M 356.585938 522.621094 L 302.089844 522.621094 C 300.667969 522.621094 299.292969 522.023438 298.320312 520.984375 C 297.351562 519.953125 296.851562 518.554688 296.941406 517.152344 C 297.523438 508.246094 300.945312 500.023438 306.574219 494.003906 C 312.507812 487.660156 320.589844 484.167969 329.339844 484.167969 C 338.085938 484.167969 346.167969 487.660156 352.101562 494.003906 C 357.730469 500.023438 361.152344 508.246094 361.734375 517.152344 C 361.824219 518.554688 361.324219 519.953125 360.359375 520.984375 C 359.382812 522.023438 358.007812 522.621094 356.585938 522.621094 Z M 302.4375 517.136719 L 356.238281 517.136719 C 355.039062 501.1875 343.777344 489.648438 329.339844 489.648438 C 314.898438 489.648438 303.636719 501.1875 302.4375 517.136719 Z M 302.4375 517.136719 " fill-opacity="1" fill-rule="nonzero"/><path fill="#ffffff" d="M 243.378906 580.335938 C 243.207031 584.625 242.035156 588.851562 239.695312 592.457031 C 238.476562 594.335938 237.777344 596.515625 237.777344 598.84375 C 237.777344 605.941406 244.253906 611.695312 252.246094 611.695312 C 260.238281 611.695312 266.714844 605.941406 266.714844 598.84375 C 266.714844 596.515625 266.015625 594.335938 264.796875 592.457031 C 262.457031 588.851562 261.285156 584.625 261.113281 580.335938 Z M 243.378906 580.335938 " fill-opacity="1" fill-rule="nonzero"/><path fill="#0a400e" d="M 252.246094 614.4375 C 242.757812 614.4375 235.035156 607.441406 235.035156 598.84375 C 235.035156 596.070312 235.851562 593.34375 237.398438 590.964844 C 239.359375 587.941406 240.480469 584.226562 240.644531 580.222656 C 240.703125 578.710938 241.984375 577.539062 243.492188 577.59375 C 245.003906 577.65625 246.179688 578.933594 246.117188 580.445312 C 245.917969 585.433594 244.492188 590.101562 241.992188 593.949219 C 241.027344 595.4375 240.515625 597.128906 240.515625 598.84375 C 240.515625 604.417969 245.777344 608.957031 252.246094 608.957031 C 258.714844 608.957031 263.976562 604.417969 263.976562 598.84375 C 263.976562 597.128906 263.464844 595.4375 262.5 593.949219 C 260.003906 590.101562 258.578125 585.433594 258.375 580.445312 C 258.3125 578.933594 259.488281 577.65625 261 577.59375 C 262.511719 577.539062 263.789062 578.710938 263.851562 580.222656 C 264.011719 584.226562 265.136719 587.941406 267.097656 590.964844 C 268.640625 593.34375 269.457031 596.070312 269.457031 598.84375 C 269.457031 607.441406 261.734375 614.4375 252.246094 614.4375 Z M 252.246094 614.4375 " fill-opacity="1" fill-rule="nonzero"/><path fill="#ffd557" d="M 224.996094 581.007812 C 223.613281 581.007812 222.496094 579.839844 222.585938 578.457031 C 223.671875 561.8125 235.34375 548.039062 252.246094 548.039062 C 269.148438 548.039062 280.820312 561.8125 281.90625 578.457031 C 281.996094 579.839844 280.878906 581.007812 279.492188 581.007812 Z M 224.996094 581.007812 " fill-opacity="1" fill-rule="nonzero"/><path fill="#0a400e" d="M 279.496094 583.75 L 225 583.75 C 223.574219 583.75 222.199219 583.152344 221.226562 582.113281 C 220.261719 581.082031 219.757812 579.683594 219.851562 578.28125 C 220.429688 569.375 223.851562 561.152344 229.484375 555.132812 C 235.414062 548.789062 243.5 545.296875 252.246094 545.296875 C 260.992188 545.296875 269.078125 548.789062 275.007812 555.132812 C 280.640625 561.152344 284.058594 569.375 284.640625 578.28125 C 284.734375 579.683594 284.230469 581.082031 283.265625 582.113281 C 282.292969 583.152344 280.917969 583.75 279.496094 583.75 Z M 225.34375 578.265625 L 279.148438 578.265625 C 277.945312 562.316406 266.683594 550.777344 252.246094 550.777344 C 237.808594 550.777344 226.546875 562.316406 225.34375 578.265625 Z M 225.34375 578.265625 " fill-opacity="1" fill-rule="nonzero"/><path fill="#ffffff" d="M 320.472656 580.335938 C 320.296875 584.625 319.125 588.851562 316.789062 592.457031 C 315.566406 594.335938 314.867188 596.515625 314.867188 598.84375 C 314.867188 605.941406 321.347656 611.695312 329.339844 611.695312 C 337.328125 611.695312 343.808594 605.941406 343.808594 598.84375 C 343.808594 596.515625 343.109375 594.335938 341.890625 592.457031 C 339.550781 588.851562 338.378906 584.625 338.203125 580.335938 Z M 320.472656 580.335938 " fill-opacity="1" fill-rule="nonzero"/><path fill="#0a400e" d="M 329.339844 614.4375 C 319.847656 614.4375 312.128906 607.441406 312.128906 598.84375 C 312.128906 596.070312 312.945312 593.34375 314.488281 590.964844 C 316.449219 587.941406 317.574219 584.226562 317.734375 580.222656 C 317.796875 578.710938 319.074219 577.539062 320.582031 577.59375 C 322.097656 577.65625 323.273438 578.933594 323.210938 580.445312 C 323.007812 585.433594 321.582031 590.101562 319.085938 593.949219 C 318.121094 595.4375 317.609375 597.128906 317.609375 598.84375 C 317.609375 604.417969 322.871094 608.957031 329.339844 608.957031 C 335.804688 608.957031 341.066406 604.417969 341.066406 598.84375 C 341.066406 597.128906 340.558594 595.4375 339.589844 593.949219 C 337.09375 590.101562 335.667969 585.433594 335.464844 580.445312 C 335.40625 578.933594 336.582031 577.65625 338.09375 577.59375 C 339.605469 577.539062 340.878906 578.710938 340.941406 580.222656 C 341.105469 584.226562 342.226562 587.941406 344.1875 590.964844 C 345.734375 593.34375 346.550781 596.070312 346.550781 598.84375 C 346.546875 607.441406 338.828125 614.4375 329.339844 614.4375 Z M 329.339844 614.4375 " fill-opacity="1" fill-rule="nonzero"/><path fill="#ffd557" d="M 302.089844 581.007812 C 300.703125 581.007812 299.585938 579.839844 299.675781 578.457031 C 300.761719 561.8125 312.433594 548.039062 329.339844 548.039062 C 346.242188 548.039062 357.914062 561.8125 359 578.457031 C 359.089844 579.839844 357.972656 581.007812 356.585938 581.007812 Z M 302.089844 581.007812 " fill-opacity="1" fill-rule="nonzero"/><path fill="#0a400e" d="M 356.585938 583.75 L 302.089844 583.75 C 300.667969 583.75 299.292969 583.152344 298.320312 582.113281 C 297.351562 581.082031 296.851562 579.683594 296.941406 578.28125 C 297.523438 569.375 300.945312 561.152344 306.574219 555.132812 C 312.507812 548.789062 320.589844 545.296875 329.339844 545.296875 C 338.085938 545.296875 346.167969 548.789062 352.101562 555.132812 C 357.730469 561.152344 361.152344 569.375 361.734375 578.28125 C 361.824219 579.683594 361.324219 581.082031 360.359375 582.113281 C 359.382812 583.152344 358.007812 583.75 356.585938 583.75 Z M 302.4375 578.265625 L 356.238281 578.265625 C 355.039062 562.316406 343.777344 550.777344 329.339844 550.777344 C 314.898438 550.777344 303.636719 562.316406 302.4375 578.265625 Z M 302.4375 578.265625 " fill-opacity="1" fill-rule="nonzero"/><path fill="#ffffff" d="M 480.683594 446.339844 C 480.5 450.847656 479.269531 455.289062 476.8125 459.074219 C 475.53125 461.050781 474.796875 463.339844 474.796875 465.785156 C 474.796875 473.242188 481.601562 479.289062 489.996094 479.289062 C 498.390625 479.289062 505.195312 473.242188 505.195312 465.785156 C 505.195312 463.339844 504.460938 461.050781 503.179688 459.074219 C 500.722656 455.289062 499.492188 450.847656 499.308594 446.339844 Z M 480.683594 446.339844 " fill-opacity="1" fill-rule="nonzero"/><path fill="#0a400e" d="M 489.996094 482.027344 C 480.105469 482.027344 472.054688 474.742188 472.054688 465.785156 C 472.054688 462.898438 472.90625 460.0625 474.511719 457.582031 C 476.585938 454.386719 477.773438 450.460938 477.945312 446.230469 C 478.007812 444.71875 479.28125 443.542969 480.792969 443.601562 C 482.304688 443.664062 483.484375 444.941406 483.421875 446.453125 C 483.210938 451.667969 481.71875 456.546875 479.109375 460.570312 C 478.082031 462.15625 477.535156 463.960938 477.535156 465.785156 C 477.535156 471.71875 483.125 476.546875 489.996094 476.546875 C 496.867188 476.546875 502.457031 471.71875 502.457031 465.785156 C 502.457031 463.960938 501.914062 462.15625 500.882812 460.570312 C 498.273438 456.546875 496.78125 451.667969 496.570312 446.453125 C 496.511719 444.941406 497.6875 443.664062 499.199219 443.601562 C 500.710938 443.542969 501.988281 444.71875 502.046875 446.230469 C 502.21875 450.460938 503.40625 454.386719 505.480469 457.582031 C 507.085938 460.0625 507.9375 462.898438 507.9375 465.785156 C 507.9375 474.742188 499.890625 482.027344 489.996094 482.027344 Z M 489.996094 482.027344 " fill-opacity="1" fill-rule="nonzero"/><path fill="#ffd557" d="M 467.972656 448.378906 C 466.851562 448.378906 465.949219 447.433594 466.023438 446.316406 C 466.898438 432.863281 476.332031 421.726562 489.996094 421.726562 C 503.660156 421.726562 513.09375 432.863281 513.972656 446.316406 C 514.042969 447.433594 513.140625 448.378906 512.019531 448.378906 Z M 467.972656 448.378906 " fill-opacity="1" fill-rule="nonzero"/><path fill="#0a400e" d="M 512.019531 451.121094 L 467.972656 451.121094 C 466.675781 451.121094 465.425781 450.578125 464.539062 449.628906 C 463.660156 448.691406 463.203125 447.417969 463.285156 446.140625 C 463.765625 438.820312 466.578125 432.058594 471.214844 427.105469 C 476.109375 421.871094 482.78125 418.988281 489.996094 418.988281 C 497.214844 418.988281 503.882812 421.871094 508.777344 427.105469 C 513.414062 432.058594 516.226562 438.820312 516.707031 446.140625 C 516.789062 447.417969 516.332031 448.691406 515.453125 449.628906 C 514.566406 450.578125 513.316406 451.121094 512.019531 451.121094 Z M 468.824219 445.636719 L 511.167969 445.636719 C 510 433.320312 501.210938 424.46875 489.996094 424.46875 C 478.78125 424.46875 469.992188 433.320312 468.824219 445.636719 Z M 468.824219 445.636719 " fill-opacity="1" fill-rule="nonzero"/><path fill="#ffffff" d="M 544.746094 446.339844 C 544.566406 450.847656 543.332031 455.289062 540.875 459.074219 C 539.59375 461.050781 538.859375 463.339844 538.859375 465.785156 C 538.859375 473.242188 545.664062 479.289062 554.0625 479.289062 C 562.457031 479.289062 569.261719 473.242188 569.261719 465.785156 C 569.261719 463.339844 568.527344 461.050781 567.246094 459.074219 C 564.789062 455.289062 563.558594 450.847656 563.375 446.339844 Z M 544.746094 446.339844 " fill-opacity="1" fill-rule="nonzero"/><path fill="#0a400e" d="M 554.0625 482.027344 C 544.167969 482.027344 536.121094 474.742188 536.121094 465.785156 C 536.121094 462.898438 536.96875 460.0625 538.578125 457.582031 C 540.652344 454.386719 541.839844 450.460938 542.011719 446.230469 C 542.070312 444.71875 543.34375 443.542969 544.859375 443.601562 C 546.371094 443.664062 547.546875 444.941406 547.484375 446.453125 C 547.273438 451.667969 545.785156 456.546875 543.175781 460.570312 C 542.144531 462.15625 541.601562 463.960938 541.601562 465.785156 C 541.601562 471.71875 547.191406 476.546875 554.0625 476.546875 C 560.933594 476.546875 566.523438 471.71875 566.523438 465.785156 C 566.523438 463.960938 565.976562 462.15625 564.949219 460.570312 C 562.339844 456.546875 560.847656 451.667969 560.636719 446.453125 C 560.574219 444.941406 561.75 443.664062 563.261719 443.601562 C 564.78125 443.542969 566.050781 444.71875 566.113281 446.230469 C 566.285156 450.460938 567.46875 454.386719 569.542969 457.582031 C 571.152344 460.0625 572.003906 462.898438 572.003906 465.785156 C 572 474.742188 563.953125 482.027344 554.0625 482.027344 Z M 554.0625 482.027344 " fill-opacity="1" fill-rule="nonzero"/><path fill="#ffd557" d="M 532.035156 448.378906 C 530.917969 448.378906 530.011719 447.433594 530.085938 446.316406 C 530.964844 432.863281 540.398438 421.726562 554.0625 421.726562 C 567.722656 421.726562 577.160156 432.863281 578.035156 446.316406 C 578.109375 447.433594 577.207031 448.378906 576.085938 448.378906 Z M 532.035156 448.378906 " fill-opacity="1" fill-rule="nonzero"/><path fill="#0a400e" d="M 576.085938 451.121094 L 532.035156 451.121094 C 530.742188 451.121094 529.492188 450.578125 528.605469 449.628906 C 527.726562 448.691406 527.269531 447.417969 527.351562 446.140625 C 527.828125 438.820312 530.644531 432.058594 535.277344 427.105469 C 540.175781 421.871094 546.84375 418.988281 554.0625 418.988281 C 561.277344 418.988281 567.949219 421.871094 572.84375 427.105469 C 577.476562 432.058594 580.292969 438.820312 580.769531 446.140625 C 580.855469 447.417969 580.398438 448.691406 579.519531 449.628906 C 578.632812 450.578125 577.378906 451.121094 576.085938 451.121094 Z M 532.890625 445.636719 L 575.234375 445.636719 C 574.0625 433.320312 565.277344 424.46875 554.0625 424.46875 C 542.84375 424.46875 534.058594 433.320312 532.890625 445.636719 Z M 532.890625 445.636719 " fill-opacity="1" fill-rule="nonzero"/><path fill="#ffffff" d="M 608.8125 446.339844 C 608.628906 450.847656 607.398438 455.289062 604.941406 459.074219 C 603.660156 461.050781 602.925781 463.339844 602.925781 465.785156 C 602.925781 473.242188 609.730469 479.289062 618.125 479.289062 C 626.519531 479.289062 633.328125 473.242188 633.328125 465.785156 C 633.328125 463.339844 632.59375 461.050781 631.3125 459.074219 C 628.855469 455.289062 627.621094 450.847656 627.4375 446.339844 Z M 608.8125 446.339844 " fill-opacity="1" fill-rule="nonzero"/><path fill="#0a400e" d="M 618.125 482.027344 C 608.234375 482.027344 600.183594 474.742188 600.183594 465.785156 C 600.183594 462.898438 601.035156 460.0625 602.644531 457.582031 C 604.714844 454.386719 605.902344 450.460938 606.074219 446.230469 C 606.136719 444.71875 607.410156 443.542969 608.925781 443.601562 C 610.4375 443.664062 611.613281 444.941406 611.550781 446.453125 C 611.339844 451.667969 609.847656 456.546875 607.238281 460.570312 C 606.210938 462.15625 605.667969 463.960938 605.667969 465.785156 C 605.667969 471.71875 611.253906 476.546875 618.125 476.546875 C 624.996094 476.546875 630.585938 471.71875 630.585938 465.785156 C 630.585938 463.960938 630.042969 462.15625 629.011719 460.570312 C 626.402344 456.546875 624.914062 451.667969 624.703125 446.453125 C 624.640625 444.941406 625.816406 443.664062 627.328125 443.601562 C 628.84375 443.542969 630.117188 444.71875 630.175781 446.230469 C 630.347656 450.460938 631.535156 454.386719 633.609375 457.582031 C 635.21875 460.0625 636.066406 462.898438 636.066406 465.785156 C 636.066406 474.742188 628.019531 482.027344 618.125 482.027344 Z M 618.125 482.027344 " fill-opacity="1" fill-rule="nonzero"/><path fill="#ffd557" d="M 596.101562 448.378906 C 594.980469 448.378906 594.078125 447.433594 594.152344 446.316406 C 595.027344 432.863281 604.464844 421.726562 618.125 421.726562 C 631.789062 421.726562 641.222656 432.863281 642.101562 446.316406 C 642.175781 447.433594 641.269531 448.378906 640.152344 448.378906 Z M 596.101562 448.378906 " fill-opacity="1" fill-rule="nonzero"/><path fill="#0a400e" d="M 640.152344 451.121094 L 596.101562 451.121094 C 594.808594 451.121094 593.554688 450.578125 592.671875 449.632812 C 591.789062 448.691406 591.332031 447.417969 591.417969 446.140625 C 591.894531 438.820312 594.710938 432.058594 599.34375 427.105469 C 604.238281 421.871094 610.910156 418.988281 618.125 418.988281 C 625.34375 418.988281 632.011719 421.871094 636.910156 427.105469 C 641.542969 432.058594 644.359375 438.820312 644.835938 446.140625 C 644.917969 447.417969 644.460938 448.691406 643.582031 449.632812 C 642.695312 450.578125 641.445312 451.121094 640.152344 451.121094 Z M 596.953125 445.636719 L 639.296875 445.636719 C 638.128906 433.320312 629.34375 424.46875 618.125 424.46875 C 606.910156 424.46875 598.121094 433.320312 596.953125 445.636719 Z M 596.953125 445.636719 " fill-opacity="1" fill-rule="nonzero"/><path fill="#ffffff" d="M 653.109375 491.699219 L 669.273438 491.699219 C 673.890625 491.699219 677.667969 495.476562 677.667969 500.097656 C 677.667969 504.71875 673.890625 508.5 669.273438 508.5 L 649.664062 508.5 Z M 653.109375 491.699219 " fill-opacity="1" fill-rule="nonzero"/><g clip-path="url(#681796d9ce)"><path fill="#0a400e" d="M 669.273438 511.238281 L 649.664062 511.238281 C 648.152344 511.238281 646.925781 510.011719 646.925781 508.5 C 646.925781 506.984375 648.152344 505.757812 649.664062 505.757812 L 669.273438 505.757812 C 672.390625 505.757812 674.929688 503.21875 674.929688 500.097656 C 674.929688 496.976562 672.390625 494.4375 669.273438 494.4375 L 653.109375 494.4375 C 651.597656 494.4375 650.371094 493.210938 650.371094 491.699219 C 650.371094 490.183594 651.597656 488.957031 653.109375 488.957031 L 669.273438 488.957031 C 675.414062 488.957031 680.410156 493.953125 680.410156 500.097656 C 680.410156 506.242188 675.414062 511.238281 669.273438 511.238281 Z M 669.273438 511.238281 " fill-opacity="1" fill-rule="nonzero"/></g><path fill="#ffffff" d="M 458.457031 508.5 L 438.851562 508.5 C 434.234375 508.5 430.453125 504.71875 430.453125 500.097656 C 430.453125 495.476562 434.234375 491.699219 438.851562 491.699219 L 455.011719 491.699219 Z M 458.457031 508.5 " fill-opacity="1" fill-rule="nonzero"/><path fill="#0a400e" d="M 458.457031 511.238281 L 438.851562 511.238281 C 432.710938 511.238281 427.714844 506.242188 427.714844 500.097656 C 427.714844 493.953125 432.710938 488.957031 438.851562 488.957031 L 455.011719 488.957031 C 456.523438 488.957031 457.75 490.183594 457.75 491.699219 C 457.75 493.210938 456.523438 494.4375 455.011719 494.4375 L 438.851562 494.4375 C 435.730469 494.4375 433.195312 496.976562 433.195312 500.097656 C 433.195312 503.21875 435.730469 505.757812 438.851562 505.757812 L 458.457031 505.757812 C 459.972656 505.757812 461.199219 506.984375 461.199219 508.5 C 461.199219 510.011719 459.972656 511.238281 458.457031 511.238281 Z M 458.457031 511.238281 " fill-opacity="1" fill-rule="nonzero"/><path fill="#a6f28c" d="M 453.074219 482.070312 L 462.355469 527.644531 C 463.210938 531.855469 466.914062 534.882812 471.210938 534.882812 L 636.90625 534.882812 C 641.203125 534.882812 644.90625 531.855469 645.765625 527.644531 L 655.046875 482.074219 C 656.1875 476.46875 651.90625 471.222656 646.1875 471.222656 L 461.933594 471.222656 C 456.214844 471.222656 451.933594 476.464844 453.074219 482.070312 Z M 453.074219 482.070312 " fill-opacity="1" fill-rule="nonzero"/><path fill="#0a400e" d="M 636.90625 537.621094 L 471.210938 537.621094 C 465.636719 537.621094 460.78125 533.65625 459.667969 528.191406 L 450.390625 482.617188 C 449.683594 479.136719 450.5625 475.5625 452.8125 472.8125 C 455.058594 470.058594 458.382812 468.484375 461.933594 468.484375 L 646.1875 468.484375 C 649.738281 468.484375 653.066406 470.0625 655.3125 472.8125 C 657.558594 475.5625 658.441406 479.136719 657.730469 482.621094 L 648.449219 528.191406 C 647.339844 533.65625 642.484375 537.621094 636.90625 537.621094 Z M 461.933594 473.964844 C 460.035156 473.964844 458.257812 474.808594 457.054688 476.28125 C 455.855469 477.75 455.382812 479.664062 455.761719 481.523438 L 465.039062 527.097656 C 465.632812 530.019531 468.230469 532.140625 471.210938 532.140625 L 636.90625 532.140625 C 639.890625 532.140625 642.484375 530.019531 643.082031 527.097656 L 652.363281 481.523438 C 652.742188 479.664062 652.269531 477.75 651.066406 476.28125 C 649.867188 474.808594 648.085938 473.964844 646.1875 473.964844 Z M 461.933594 473.964844 " fill-opacity="1" fill-rule="nonzero"/><path fill="#a6f28c" d="M 525.492188 304.519531 L 525.40625 291.210938 C 525.414062 285.703125 530.234375 281.257812 536.171875 281.277344 L 571.90625 281.394531 C 577.84375 281.414062 582.648438 285.894531 582.636719 291.402344 L 582.722656 304.710938 Z M 525.492188 304.519531 " fill-opacity="1" fill-rule="nonzero"/><path fill="#0a400e" d="M 582.722656 307.453125 C 581.21875 307.453125 579.992188 306.234375 579.984375 304.726562 L 579.898438 291.421875 C 579.898438 291.414062 579.898438 291.40625 579.898438 291.398438 C 579.90625 287.410156 576.316406 284.152344 571.894531 284.136719 L 536.164062 284.015625 C 536.152344 284.015625 536.144531 284.015625 536.132812 284.015625 C 533.886719 284.015625 531.730469 284.878906 530.214844 286.386719 C 528.886719 287.710938 528.152344 289.421875 528.144531 291.207031 L 528.230469 304.503906 C 528.242188 306.015625 527.023438 307.25 525.507812 307.261719 C 523.988281 307.265625 522.761719 306.050781 522.75 304.539062 L 522.664062 291.230469 C 522.664062 291.222656 522.664062 291.214844 522.664062 291.207031 C 522.671875 287.953125 523.980469 284.859375 526.351562 282.5 C 528.882812 279.980469 532.449219 278.535156 536.132812 278.535156 C 536.148438 278.535156 536.164062 278.535156 536.183594 278.535156 L 571.914062 278.652344 C 579.347656 278.679688 585.382812 284.394531 585.378906 291.394531 L 585.464844 304.691406 C 585.472656 306.207031 584.253906 307.441406 582.742188 307.453125 C 582.734375 307.453125 582.730469 307.453125 582.722656 307.453125 Z M 582.722656 307.453125 " fill-opacity="1" fill-rule="nonzero"/><path fill="#ffd557" d="M 576.113281 359.804688 C 576.09375 371.9375 566.203125 381.738281 554.027344 381.695312 C 541.851562 381.65625 531.996094 371.785156 532.015625 359.652344 Z M 576.113281 359.804688 " fill-opacity="1" fill-rule="nonzero"/><path fill="#0a400e" d="M 554.105469 384.4375 C 554.074219 384.4375 554.046875 384.4375 554.015625 384.4375 C 540.351562 384.390625 529.253906 373.269531 529.277344 359.648438 C 529.277344 358.136719 530.503906 356.914062 532.015625 356.914062 C 532.019531 356.914062 532.019531 356.914062 532.019531 356.914062 C 533.535156 356.914062 534.757812 358.144531 534.757812 359.660156 C 534.738281 370.261719 543.386719 378.917969 554.035156 378.957031 C 559.203125 378.976562 564.070312 376.980469 567.726562 373.339844 C 571.359375 369.726562 573.363281 364.917969 573.375 359.796875 C 573.375 358.285156 574.601562 357.0625 576.113281 357.0625 C 576.113281 357.0625 576.117188 357.0625 576.117188 357.0625 C 577.632812 357.066406 578.855469 358.292969 578.851562 359.808594 C 578.84375 366.390625 576.261719 372.578125 571.59375 377.226562 C 566.917969 381.878906 560.710938 384.4375 554.105469 384.4375 Z M 554.105469 384.4375 " fill-opacity="1" fill-rule="nonzero"/><path fill="#ffffff" d="M 554.117188 298.90625 C 514.570312 298.777344 482.515625 324.316406 482.453125 361.003906 L 625.667969 361.480469 C 625.730469 324.792969 593.664062 299.039062 554.117188 298.90625 Z M 554.117188 298.90625 " fill-opacity="1" fill-rule="nonzero"/><path fill="#0a400e" d="M 625.667969 364.222656 C 625.667969 364.222656 625.664062 364.222656 625.660156 364.222656 L 482.445312 363.746094 C 480.933594 363.738281 479.710938 362.511719 479.710938 361 C 479.726562 352.589844 481.347656 344.539062 484.535156 337.066406 C 487.597656 329.886719 492.039062 323.367188 497.742188 317.691406 C 504.613281 310.855469 513 305.5 522.671875 301.78125 C 532.453125 298.019531 543.03125 296.132812 554.125 296.167969 C 574.203125 296.234375 592.808594 302.707031 606.523438 314.398438 C 620.667969 326.457031 628.441406 343.179688 628.410156 361.484375 C 628.40625 362.214844 628.117188 362.910156 627.601562 363.425781 C 627.089844 363.933594 626.394531 364.222656 625.667969 364.222656 Z M 485.261719 358.273438 L 622.867188 358.730469 C 621.375 326.121094 592.335938 301.777344 554.109375 301.648438 C 554.011719 301.648438 553.914062 301.648438 553.820312 301.648438 C 533.355469 301.648438 514.339844 308.902344 501.605469 321.578125 C 491.542969 331.59375 485.925781 344.234375 485.261719 358.273438 Z M 485.261719 358.273438 " fill-opacity="1" fill-rule="nonzero"/><path fill="#a6f28c" d="M 566.894531 281.378906 L 541.183594 281.292969 L 541.152344 271.808594 C 541.164062 265.222656 546.925781 259.902344 554.027344 259.925781 C 561.125 259.949219 566.871094 265.308594 566.859375 271.894531 Z M 566.894531 281.378906 " fill-opacity="1" fill-rule="nonzero"/><path fill="#0a400e" d="M 566.894531 284.121094 C 566.890625 284.121094 566.886719 284.121094 566.882812 284.121094 L 541.175781 284.035156 C 539.667969 284.027344 538.449219 282.808594 538.445312 281.300781 L 538.414062 271.820312 C 538.417969 268.054688 539.925781 264.492188 542.660156 261.769531 C 545.589844 258.855469 549.714844 257.1875 553.980469 257.1875 C 554 257.1875 554.015625 257.1875 554.035156 257.1875 C 562.632812 257.214844 569.613281 263.816406 569.601562 271.898438 L 569.632812 281.367188 C 569.636719 282.097656 569.347656 282.800781 568.832031 283.316406 C 568.316406 283.832031 567.621094 284.121094 566.894531 284.121094 Z M 543.914062 278.558594 L 564.144531 278.628906 L 564.121094 271.902344 C 564.128906 266.824219 559.597656 262.6875 554.019531 262.667969 C 554.003906 262.667969 553.992188 262.667969 553.980469 262.667969 C 551.152344 262.667969 548.4375 263.757812 546.527344 265.65625 C 544.832031 267.34375 543.898438 269.53125 543.894531 271.8125 Z M 543.914062 278.558594 " fill-opacity="1" fill-rule="nonzero"/><path fill="#0a400e" d="M 584.835938 407.71875 C 584.132812 407.71875 583.433594 407.449219 582.898438 406.914062 L 569.058594 393.070312 C 567.988281 392 567.988281 390.261719 569.058594 389.191406 C 570.125 388.121094 571.863281 388.121094 572.933594 389.191406 L 586.773438 403.039062 C 587.84375 404.109375 587.84375 405.84375 586.773438 406.914062 C 586.238281 407.449219 585.535156 407.71875 584.835938 407.71875 Z M 584.835938 407.71875 " fill-opacity="1" fill-rule="nonzero"/><path fill="#0a400e" d="M 554.027344 413.453125 C 552.511719 413.453125 551.285156 412.226562 551.285156 410.710938 L 551.285156 391.128906 C 551.285156 389.617188 552.511719 388.390625 554.027344 388.390625 C 555.539062 388.390625 556.765625 389.617188 556.765625 391.128906 L 556.765625 410.710938 C 556.765625 412.226562 555.539062 413.453125 554.027344 413.453125 Z M 554.027344 413.453125 " fill-opacity="1" fill-rule="nonzero"/><path fill="#0a400e" d="M 523.21875 407.71875 C 522.515625 407.71875 521.816406 407.449219 521.28125 406.914062 C 520.210938 405.84375 520.210938 404.109375 521.28125 403.039062 L 535.121094 389.191406 C 536.191406 388.121094 537.925781 388.121094 538.996094 389.191406 C 540.066406 390.261719 540.066406 392 538.996094 393.070312 L 525.15625 406.914062 C 524.621094 407.449219 523.921875 407.71875 523.21875 407.71875 Z M 523.21875 407.71875 " fill-opacity="1" fill-rule="nonzero"/><path fill="#ffffff" d="M 374.761719 397.40625 L 217.660156 397.40625 C 207.570312 397.40625 199.390625 389.222656 199.390625 379.128906 L 199.390625 252.914062 C 199.390625 240.464844 205.726562 228.871094 216.199219 222.148438 L 296.210938 170.804688 L 376.222656 222.148438 C 386.695312 228.871094 393.03125 240.464844 393.03125 252.914062 L 393.03125 379.128906 C 393.03125 389.222656 384.851562 397.40625 374.761719 397.40625 Z M 374.761719 397.40625 " fill-opacity="1" fill-rule="nonzero"/><path fill="#0a400e" d="M 374.761719 400.144531 L 217.660156 400.144531 C 206.074219 400.144531 196.652344 390.71875 196.652344 379.128906 L 196.652344 252.914062 C 196.652344 246.347656 198.316406 239.832031 201.464844 234.070312 C 204.613281 228.308594 209.195312 223.386719 214.71875 219.84375 L 294.730469 168.496094 C 295.632812 167.917969 296.789062 167.917969 297.691406 168.496094 L 377.703125 219.84375 C 383.226562 223.386719 387.8125 228.308594 390.957031 234.070312 C 394.105469 239.832031 395.769531 246.347656 395.769531 252.914062 L 395.769531 379.128906 C 395.769531 390.71875 386.347656 400.144531 374.761719 400.144531 Z M 296.210938 174.0625 L 217.679688 224.457031 C 207.945312 230.707031 202.132812 241.34375 202.132812 252.914062 L 202.132812 379.128906 C 202.132812 387.695312 209.097656 394.664062 217.660156 394.664062 L 374.761719 394.664062 C 383.324219 394.664062 390.289062 387.695312 390.289062 379.128906 L 390.289062 252.914062 C 390.289062 241.34375 384.476562 230.707031 374.742188 224.457031 Z M 296.210938 174.0625 " fill-opacity="1" fill-rule="nonzero"/><path fill="#0a400e" d="M 223.140625 280.101562 C 221.625 280.101562 220.398438 278.875 220.398438 277.359375 L 220.398438 262.636719 C 220.398438 261.125 221.625 259.898438 223.140625 259.898438 C 224.652344 259.898438 225.878906 261.125 225.878906 262.636719 L 225.878906 277.359375 C 225.878906 278.875 224.652344 280.101562 223.140625 280.101562 Z M 223.140625 280.101562 " fill-opacity="1" fill-rule="nonzero"/><path fill="#0a400e" d="M 241.40625 265.378906 C 239.894531 265.378906 238.667969 264.152344 238.667969 262.636719 L 238.667969 247.914062 C 238.667969 246.402344 239.894531 245.175781 241.40625 245.175781 C 242.921875 245.175781 244.148438 246.402344 244.148438 247.914062 L 244.148438 262.636719 C 244.148438 264.152344 242.921875 265.378906 241.40625 265.378906 Z M 241.40625 265.378906 " fill-opacity="1" fill-rule="nonzero"/><path fill="#0a400e" d="M 259.675781 250.65625 C 258.164062 250.65625 256.933594 249.429688 256.933594 247.914062 L 256.933594 233.195312 C 256.933594 231.679688 258.164062 230.453125 259.675781 230.453125 C 261.1875 230.453125 262.414062 231.679688 262.414062 233.195312 L 262.414062 247.914062 C 262.414062 249.429688 261.1875 250.65625 259.675781 250.65625 Z M 259.675781 250.65625 " fill-opacity="1" fill-rule="nonzero"/><path fill="#0a400e" d="M 277.945312 235.933594 C 276.429688 235.933594 275.203125 234.707031 275.203125 233.195312 L 275.203125 218.472656 C 275.203125 216.957031 276.429688 215.730469 277.945312 215.730469 C 279.457031 215.730469 280.683594 216.957031 280.683594 218.472656 L 280.683594 233.195312 C 280.683594 234.707031 279.457031 235.933594 277.945312 235.933594 Z M 277.945312 235.933594 " fill-opacity="1" fill-rule="nonzero"/><path fill="#0a400e" d="M 369.28125 280.101562 C 367.769531 280.101562 366.542969 278.875 366.542969 277.359375 L 366.542969 262.636719 C 366.542969 261.125 367.769531 259.898438 369.28125 259.898438 C 370.796875 259.898438 372.023438 261.125 372.023438 262.636719 L 372.023438 277.359375 C 372.023438 278.875 370.796875 280.101562 369.28125 280.101562 Z M 369.28125 280.101562 " fill-opacity="1" fill-rule="nonzero"/><path fill="#0a400e" d="M 351.015625 265.378906 C 349.5 265.378906 348.273438 264.152344 348.273438 262.636719 L 348.273438 247.914062 C 348.273438 246.402344 349.5 245.175781 351.015625 245.175781 C 352.527344 245.175781 353.753906 246.402344 353.753906 247.914062 L 353.753906 262.636719 C 353.753906 264.152344 352.527344 265.378906 351.015625 265.378906 Z M 351.015625 265.378906 " fill-opacity="1" fill-rule="nonzero"/><path fill="#0a400e" d="M 332.746094 250.65625 C 331.234375 250.65625 330.007812 249.429688 330.007812 247.914062 L 330.007812 233.195312 C 330.007812 231.679688 331.234375 230.453125 332.746094 230.453125 C 334.261719 230.453125 335.488281 231.679688 335.488281 233.195312 L 335.488281 247.914062 C 335.488281 249.429688 334.261719 250.65625 332.746094 250.65625 Z M 332.746094 250.65625 " fill-opacity="1" fill-rule="nonzero"/><path fill="#0a400e" d="M 314.480469 235.933594 C 312.964844 235.933594 311.738281 234.707031 311.738281 233.195312 L 311.738281 218.472656 C 311.738281 216.957031 312.964844 215.730469 314.480469 215.730469 C 315.992188 215.730469 317.21875 216.957031 317.21875 218.472656 L 317.21875 233.195312 C 317.21875 234.707031 315.992188 235.933594 314.480469 235.933594 Z M 314.480469 235.933594 " fill-opacity="1" fill-rule="nonzero"/><path fill="#0a400e" d="M 296.210938 221.210938 C 294.699219 221.210938 293.472656 219.984375 293.472656 218.472656 L 293.472656 203.75 C 293.472656 202.234375 294.699219 201.007812 296.210938 201.007812 C 297.722656 201.007812 298.953125 202.234375 298.953125 203.75 L 298.953125 218.472656 C 298.953125 219.984375 297.722656 221.210938 296.210938 221.210938 Z M 296.210938 221.210938 " fill-opacity="1" fill-rule="nonzero"/><path fill="#0a400e" d="M 223.140625 329.175781 C 221.625 329.175781 220.398438 327.949219 220.398438 326.433594 L 220.398438 311.710938 C 220.398438 310.199219 221.625 308.96875 223.140625 308.96875 C 224.652344 308.96875 225.878906 310.199219 225.878906 311.710938 L 225.878906 326.433594 C 225.878906 327.949219 224.652344 329.175781 223.140625 329.175781 Z M 223.140625 329.175781 " fill-opacity="1" fill-rule="nonzero"/><path fill="#0a400e" d="M 241.40625 314.453125 C 239.894531 314.453125 238.667969 313.226562 238.667969 311.710938 L 238.667969 296.988281 C 238.667969 295.476562 239.894531 294.25 241.40625 294.25 C 242.921875 294.25 244.148438 295.476562 244.148438 296.988281 L 244.148438 311.710938 C 244.148438 313.226562 242.921875 314.453125 241.40625 314.453125 Z M 241.40625 314.453125 " fill-opacity="1" fill-rule="nonzero"/><path fill="#0a400e" d="M 259.675781 299.730469 C 258.164062 299.730469 256.933594 298.503906 256.933594 296.988281 L 256.933594 282.265625 C 256.933594 280.753906 258.164062 279.527344 259.675781 279.527344 C 261.1875 279.527344 262.414062 280.753906 262.414062 282.265625 L 262.414062 296.988281 C 262.414062 298.503906 261.1875 299.730469 259.675781 299.730469 Z M 259.675781 299.730469 " fill-opacity="1" fill-rule="nonzero"/><path fill="#0a400e" d="M 277.945312 285.007812 C 276.429688 285.007812 275.203125 283.78125 275.203125 282.265625 L 275.203125 267.546875 C 275.203125 266.03125 276.429688 264.804688 277.945312 264.804688 C 279.457031 264.804688 280.683594 266.03125 280.683594 267.546875 L 280.683594 282.265625 C 280.683594 283.78125 279.457031 285.007812 277.945312 285.007812 Z M 277.945312 285.007812 " fill-opacity="1" fill-rule="nonzero"/><path fill="#0a400e" d="M 369.28125 329.175781 C 367.769531 329.175781 366.542969 327.949219 366.542969 326.433594 L 366.542969 311.710938 C 366.542969 310.199219 367.769531 308.96875 369.28125 308.96875 C 370.796875 308.96875 372.023438 310.199219 372.023438 311.710938 L 372.023438 326.433594 C 372.023438 327.949219 370.796875 329.175781 369.28125 329.175781 Z M 369.28125 329.175781 " fill-opacity="1" fill-rule="nonzero"/><path fill="#0a400e" d="M 351.015625 314.453125 C 349.5 314.453125 348.273438 313.226562 348.273438 311.710938 L 348.273438 296.988281 C 348.273438 295.476562 349.5 294.25 351.015625 294.25 C 352.527344 294.25 353.753906 295.476562 353.753906 296.988281 L 353.753906 311.710938 C 353.753906 313.226562 352.527344 314.453125 351.015625 314.453125 Z M 351.015625 314.453125 " fill-opacity="1" fill-rule="nonzero"/><path fill="#0a400e" d="M 332.746094 299.730469 C 331.234375 299.730469 330.007812 298.503906 330.007812 296.988281 L 330.007812 282.265625 C 330.007812 280.753906 331.234375 279.527344 332.746094 279.527344 C 334.261719 279.527344 335.488281 280.753906 335.488281 282.265625 L 335.488281 296.988281 C 335.488281 298.503906 334.261719 299.730469 332.746094 299.730469 Z M 332.746094 299.730469 " fill-opacity="1" fill-rule="nonzero"/><path fill="#0a400e" d="M 314.480469 285.007812 C 312.964844 285.007812 311.738281 283.78125 311.738281 282.265625 L 311.738281 267.546875 C 311.738281 266.03125 312.964844 264.804688 314.480469 264.804688 C 315.992188 264.804688 317.21875 266.03125 317.21875 267.546875 L 317.21875 282.265625 C 317.21875 283.78125 315.992188 285.007812 314.480469 285.007812 Z M 314.480469 285.007812 " fill-opacity="1" fill-rule="nonzero"/><path fill="#0a400e" d="M 296.210938 270.285156 C 294.699219 270.285156 293.472656 269.058594 293.472656 267.546875 L 293.472656 252.824219 C 293.472656 251.308594 294.699219 250.082031 296.210938 250.082031 C 297.722656 250.082031 298.953125 251.308594 298.953125 252.824219 L 298.953125 267.546875 C 298.953125 269.058594 297.722656 270.285156 296.210938 270.285156 Z M 296.210938 270.285156 " fill-opacity="1" fill-rule="nonzero"/><path fill="#ffffff" d="M 283.976562 354.121094 C 283.734375 360.039062 282.117188 365.875 278.890625 370.851562 C 277.207031 373.445312 276.242188 376.453125 276.242188 379.664062 C 276.242188 389.460938 285.179688 397.40625 296.210938 397.40625 C 307.242188 397.40625 316.183594 389.460938 316.183594 379.664062 C 316.183594 376.453125 315.21875 373.445312 313.535156 370.851562 C 310.304688 365.875 308.6875 360.039062 308.445312 354.121094 Z M 283.976562 354.121094 " fill-opacity="1" fill-rule="nonzero"/><path fill="#0a400e" d="M 296.210938 400.144531 C 283.6875 400.144531 273.5 390.957031 273.5 379.664062 C 273.5 376.039062 274.570312 372.472656 276.589844 369.359375 C 279.398438 365.03125 281.003906 359.722656 281.238281 354.007812 C 281.296875 352.496094 282.578125 351.320312 284.085938 351.378906 C 285.597656 351.441406 286.773438 352.71875 286.714844 354.230469 C 286.441406 360.925781 284.53125 367.191406 281.1875 372.34375 C 279.742188 374.566406 278.980469 377.097656 278.980469 379.664062 C 278.980469 387.933594 286.710938 394.664062 296.210938 394.664062 C 305.710938 394.664062 313.441406 387.933594 313.441406 379.664062 C 313.441406 377.097656 312.679688 374.566406 311.234375 372.34375 C 307.890625 367.191406 305.980469 360.925781 305.710938 354.230469 C 305.648438 352.71875 306.824219 351.441406 308.335938 351.378906 C 309.847656 351.320312 311.125 352.496094 311.183594 354.007812 C 311.417969 359.722656 313.023438 365.03125 315.832031 369.359375 C 317.855469 372.472656 318.921875 376.039062 318.921875 379.664062 C 318.921875 390.957031 308.734375 400.144531 296.210938 400.144531 Z M 296.210938 400.144531 " fill-opacity="1" fill-rule="nonzero"/><path fill="#ffd557" d="M 258.605469 353.367188 C 256.691406 353.367188 255.148438 351.753906 255.273438 349.847656 C 256.773438 326.871094 272.882812 307.859375 296.210938 307.859375 C 319.539062 307.859375 335.648438 326.871094 337.148438 349.847656 C 337.273438 351.753906 335.730469 353.367188 333.816406 353.367188 Z M 258.605469 353.367188 " fill-opacity="1" fill-rule="nonzero"/><path fill="#0a400e" d="M 333.816406 356.105469 L 258.605469 356.105469 C 256.925781 356.105469 255.308594 355.40625 254.160156 354.179688 C 253.023438 352.964844 252.433594 351.320312 252.539062 349.667969 C 253.328125 337.617188 257.949219 326.5 265.554688 318.367188 C 269.453125 314.199219 274 310.941406 279.070312 308.6875 C 284.390625 306.320312 290.15625 305.121094 296.210938 305.121094 C 302.265625 305.121094 308.03125 306.320312 313.351562 308.6875 C 318.421875 310.941406 322.96875 314.199219 326.867188 318.367188 C 334.472656 326.5 339.097656 337.617188 339.882812 349.667969 C 339.988281 351.320312 339.398438 352.964844 338.261719 354.179688 C 337.113281 355.40625 335.496094 356.105469 333.816406 356.105469 Z M 296.210938 310.601562 C 275.566406 310.601562 259.5 327.183594 258.007812 350.027344 C 257.996094 350.214844 258.082031 350.351562 258.160156 350.429688 C 258.226562 350.503906 258.375 350.625 258.605469 350.625 L 333.816406 350.625 C 334.046875 350.625 334.195312 350.503906 334.261719 350.429688 C 334.339844 350.351562 334.425781 350.214844 334.414062 350.027344 C 332.921875 327.183594 316.855469 310.601562 296.210938 310.601562 Z M 296.210938 310.601562 " fill-opacity="1" fill-rule="nonzero"/></svg>