<svg xmlns="http://www.w3.org/2000/svg" xmlns:xlink="http://www.w3.org/1999/xlink" width="48" zoomAndPan="magnify" viewBox="0 0 36 36.000001" height="48" preserveAspectRatio="xMidYMid meet" version="1.0"><defs><clipPath id="239260c325"><path d="M 0.488281 0 L 35.511719 0 L 35.511719 35.027344 L 0.488281 35.027344 Z M 0.488281 0 " clip-rule="nonzero"/></clipPath><clipPath id="00cc5d199b"><path d="M 18 0 C 8.328125 0 0.488281 7.839844 0.488281 17.511719 C 0.488281 27.1875 8.328125 35.027344 18 35.027344 C 27.671875 35.027344 35.511719 27.1875 35.511719 17.511719 C 35.511719 7.839844 27.671875 0 18 0 Z M 18 0 " clip-rule="nonzero"/></clipPath><clipPath id="d7bb5f6ecd"><path d="M 5.019531 9.84375 L 29.828125 9.84375 L 29.828125 31.007812 L 5.019531 31.007812 Z M 5.019531 9.84375 " clip-rule="nonzero"/></clipPath><clipPath id="e4b4c1b9cc"><path d="M 20 10 L 29.828125 10 L 29.828125 17 L 20 17 Z M 20 10 " clip-rule="nonzero"/></clipPath><clipPath id="8dc58e6f7c"><path d="M 5.019531 18 L 12 18 L 12 23 L 5.019531 23 Z M 5.019531 18 " clip-rule="nonzero"/></clipPath></defs><g clip-path="url(#239260c325)"><g clip-path="url(#00cc5d199b)"><path fill="#2fb86f" d="M 0.488281 0 L 35.511719 0 L 35.511719 35.027344 L 0.488281 35.027344 Z M 0.488281 0 " fill-opacity="1" fill-rule="nonzero"/></g></g><g clip-path="url(#d7bb5f6ecd)"><path fill="#ffffff" d="M 11.914062 29.273438 C 11.804688 29.132812 11.640625 29.050781 11.5 28.984375 C 11.402344 28.933594 11.3125 28.890625 11.25 28.832031 C 11.125 28.71875 11.078125 28.511719 11.035156 28.289062 C 10.742188 26.667969 10.492188 25.019531 10.300781 23.375 C 10.3125 23.375 10.324219 23.375 10.339844 23.375 C 10.488281 23.375 10.621094 23.367188 10.753906 23.351562 C 11.03125 23.789062 11.554688 23.972656 12.035156 24.109375 L 12.980469 24.378906 L 13.054688 26.605469 C 13.078125 27.269531 13.070312 27.902344 12.734375 28.347656 C 12.644531 28.472656 12.527344 28.582031 12.40625 28.695312 C 12.296875 28.796875 12.183594 28.90625 12.078125 29.027344 C 12.019531 29.101562 11.960938 29.183594 11.914062 29.273438 Z M 15.449219 27.566406 C 15.410156 28.046875 15.300781 28.5 15.152344 28.773438 C 15.136719 28.804688 15.109375 28.820312 15.105469 28.824219 C 15.089844 28.816406 15.078125 28.808594 15.0625 28.800781 C 15.023438 28.78125 14.96875 28.753906 14.902344 28.742188 C 14.945312 27.4375 14.96875 26.125 14.984375 24.816406 C 15.179688 24.835938 15.394531 24.851562 15.613281 24.855469 C 15.570312 25.761719 15.515625 26.667969 15.449219 27.566406 Z M 6.136719 22.5 C 6.8125 22.765625 7.507812 22.972656 8.214844 23.121094 C 8.40625 24.226562 8.574219 25.347656 8.710938 26.460938 C 8.730469 26.628906 8.757812 26.804688 8.785156 26.980469 C 8.859375 27.449219 8.933594 27.929688 8.890625 28.359375 C 8.882812 28.449219 8.851562 28.53125 8.8125 28.628906 C 8.785156 28.703125 8.757812 28.78125 8.738281 28.871094 C 8.683594 29.105469 8.6875 29.34375 8.695312 29.574219 C 8.699219 29.648438 8.699219 29.71875 8.699219 29.789062 C 8.699219 29.894531 8.699219 30.046875 8.792969 30.183594 C 8.933594 30.382812 9.25 30.359375 9.558594 30.332031 C 9.621094 30.328125 9.6875 30.320312 9.710938 30.320312 L 10.855469 30.359375 C 10.910156 30.359375 10.972656 30.363281 11.03125 30.363281 C 11.21875 30.363281 11.425781 30.34375 11.613281 30.253906 C 11.695312 30.210938 11.773438 30.15625 11.835938 30.085938 C 11.84375 30.105469 11.855469 30.128906 11.867188 30.148438 C 11.988281 30.382812 12.230469 30.546875 12.535156 30.609375 C 12.632812 30.628906 12.734375 30.636719 12.832031 30.636719 C 12.976562 30.636719 13.113281 30.621094 13.242188 30.605469 C 13.511719 30.578125 13.886719 30.535156 14.203125 30.363281 C 14.207031 30.421875 14.222656 30.480469 14.253906 30.539062 C 14.378906 30.785156 14.734375 30.851562 15.046875 30.914062 C 15.128906 30.929688 15.207031 30.945312 15.253906 30.957031 C 15.511719 31.039062 15.773438 31.058594 16.035156 31.058594 C 16.15625 31.058594 16.277344 31.054688 16.394531 31.050781 L 16.542969 31.046875 C 17.503906 31.019531 18.464844 30.894531 19.398438 30.675781 C 20.011719 30.53125 20.171875 30.238281 20.195312 30.015625 C 20.21875 29.824219 20.140625 29.65625 20.082031 29.53125 L 19.742188 28.796875 C 19.65625 28.617188 19.554688 28.398438 19.351562 28.246094 C 19.230469 28.15625 19.0625 28.109375 18.90625 28.117188 L 18.375 19.304688 C 18.347656 18.84375 18.320312 18.359375 18.320312 17.871094 C 19.070312 17.910156 19.828125 17.929688 20.589844 17.929688 C 21.070312 17.929688 21.554688 17.921875 22.042969 17.90625 C 21.304688 20.507812 20.65625 23.148438 20.121094 25.785156 L 19.996094 25.816406 C 19.933594 25.832031 19.882812 25.871094 19.851562 25.929688 C 19.558594 26.507812 19.40625 27.351562 20.003906 27.796875 C 20.003906 27.925781 20.601562 28.046875 20.695312 28.0625 C 20.914062 28.105469 21.09375 28.113281 21.3125 28.089844 C 21.914062 28.027344 22.53125 28.066406 23.140625 28.007812 C 23.386719 27.984375 23.636719 27.953125 23.859375 27.835938 C 24.234375 27.644531 24.386719 27.167969 24.285156 26.769531 C 24.246094 26.613281 24.167969 26.445312 24.085938 26.308594 C 24.0625 26.269531 23.8125 25.988281 23.8125 25.976562 C 23.820312 25.945312 23.824219 25.914062 23.828125 25.882812 C 23.84375 25.890625 23.855469 25.894531 23.863281 25.890625 C 23.882812 25.882812 23.878906 25.824219 23.84375 25.734375 C 23.84375 25.636719 23.828125 25.539062 23.796875 25.445312 C 23.734375 25.25 23.617188 25.089844 23.464844 24.980469 C 23.625 21.886719 24.167969 18.828125 25.089844 15.875 C 25.257812 15.90625 25.421875 15.9375 25.585938 15.964844 L 28.355469 16.480469 C 28.453125 16.496094 28.597656 16.523438 28.753906 16.523438 C 28.957031 16.523438 29.183594 16.476562 29.351562 16.304688 C 29.523438 16.132812 29.589844 15.886719 29.566406 15.550781 C 29.480469 14.394531 28.695312 13.480469 27.828125 12.566406 L 25.746094 10.378906 C 25.59375 10.214844 25.386719 9.996094 25.085938 9.949219 C 24.820312 9.90625 24.574219 10.011719 24.394531 10.09375 L 22.472656 10.941406 C 22.210938 11.058594 21.941406 11.171875 21.671875 11.285156 C 21.082031 11.53125 20.464844 11.792969 19.886719 12.09375 C 19.867188 12.105469 19.851562 12.117188 19.832031 12.125 C 19.40625 11.675781 18.929688 11.246094 18.363281 11.074219 C 18.027344 10.976562 17.648438 10.957031 17.171875 11.011719 C 16.535156 11.085938 15.917969 11.261719 15.332031 11.539062 C 14.945312 11.722656 14.628906 11.964844 14.320312 12.203125 C 14.148438 12.332031 13.972656 12.46875 13.785156 12.589844 C 13.492188 12.785156 13.109375 12.933594 12.742188 13.074219 C 12.527344 13.15625 12.304688 13.242188 12.097656 13.335938 C 11.472656 13.628906 10.84375 13.933594 10.21875 14.242188 C 9.964844 14.367188 9.648438 14.523438 9.40625 14.769531 C 9.121094 15.0625 8.988281 15.441406 9.054688 15.78125 C 9.066406 15.835938 9.097656 15.882812 9.148438 15.914062 C 10.414062 16.785156 11.953125 17.128906 13.421875 17.367188 C 14.167969 17.488281 14.929688 17.589844 15.699219 17.671875 C 15.710938 18.21875 15.71875 18.765625 15.726562 19.3125 C 15.589844 19.15625 15.445312 19.027344 15.28125 18.925781 C 14.777344 18.605469 14.125 18.554688 13.574219 18.789062 C 13.035156 19.023438 12.648438 19.5 12.335938 19.886719 L 11.890625 20.441406 C 11.847656 20.390625 11.808594 20.34375 11.769531 20.292969 C 11.390625 19.84375 10.988281 19.40625 10.566406 18.988281 C 10.152344 18.582031 9.589844 18.125 8.9375 18.21875 C 8.484375 18.285156 8.125 18.609375 7.867188 18.84375 L 5.109375 21.347656 C 5.046875 21.402344 5.023438 21.492188 5.046875 21.570312 C 5.207031 22.074219 5.710938 22.332031 6.136719 22.5 " fill-opacity="1" fill-rule="nonzero"/><path fill="#ffffff" d="M 11.296875 21.171875 L 11.609375 20.785156 C 11.554688 20.710938 11.496094 20.640625 11.4375 20.570312 C 11.066406 20.128906 10.671875 19.703125 10.261719 19.296875 C 9.917969 18.957031 9.464844 18.578125 9 18.644531 C 8.703125 18.6875 8.441406 18.90625 8.15625 19.164062 L 5.515625 21.5625 C 5.664062 21.820312 6.003906 21.984375 6.296875 22.097656 C 7.496094 22.570312 8.753906 22.851562 10.042969 22.933594 C 10.242188 22.945312 10.421875 22.945312 10.589844 22.933594 C 10.542969 22.667969 10.574219 22.375 10.695312 22.085938 C 10.839844 21.734375 11.082031 21.4375 11.296875 21.171875 Z M 12.734375 28.347656 C 13.070312 27.902344 13.078125 27.269531 13.054688 26.605469 L 12.980469 24.378906 L 12.035156 24.109375 C 11.554688 23.972656 11.03125 23.789062 10.753906 23.351562 C 10.621094 23.367188 10.488281 23.375 10.339844 23.375 C 10.324219 23.375 10.3125 23.375 10.300781 23.375 C 10.492188 25.019531 10.742188 26.667969 11.035156 28.289062 C 11.078125 28.511719 11.125 28.71875 11.25 28.832031 C 11.3125 28.890625 11.402344 28.933594 11.5 28.984375 C 11.640625 29.050781 11.804688 29.132812 11.914062 29.273438 C 11.960938 29.183594 12.019531 29.101562 12.078125 29.027344 C 12.183594 28.90625 12.296875 28.796875 12.40625 28.695312 C 12.527344 28.582031 12.644531 28.472656 12.734375 28.347656 Z M 14.480469 28.300781 C 14.515625 27.125 14.539062 25.941406 14.554688 24.765625 C 14.371094 24.738281 14.253906 24.714844 14.25 24.714844 C 13.984375 24.660156 13.722656 24.585938 13.46875 24.515625 L 13.417969 24.5 L 13.488281 26.59375 C 13.511719 27.335938 13.5 28.046875 13.082031 28.605469 C 12.96875 28.761719 12.832031 28.886719 12.699219 29.011719 C 12.59375 29.109375 12.496094 29.199219 12.410156 29.304688 C 12.261719 29.488281 12.152344 29.757812 12.25 29.949219 C 12.308594 30.0625 12.445312 30.152344 12.617188 30.183594 C 12.796875 30.21875 13 30.195312 13.195312 30.175781 C 13.597656 30.132812 13.972656 30.074219 14.199219 29.839844 C 14.261719 29.769531 14.3125 29.6875 14.347656 29.597656 L 14.449219 29.140625 C 14.460938 29.054688 14.460938 28.960938 14.464844 28.871094 C 14.398438 29.011719 14.328125 29.15625 14.246094 29.316406 C 14.210938 29.378906 14.171875 29.441406 14.113281 29.5 C 14.054688 29.558594 13.984375 29.605469 13.90625 29.628906 C 13.828125 29.65625 13.734375 29.664062 13.648438 29.636719 C 13.5625 29.605469 13.503906 29.554688 13.460938 29.511719 C 13.414062 29.464844 13.382812 29.429688 13.351562 29.40625 C 13.316406 29.382812 13.285156 29.367188 13.265625 29.363281 C 13.234375 29.351562 13.175781 29.398438 13.117188 29.464844 C 12.875 29.710938 12.710938 29.847656 12.683594 29.828125 C 12.65625 29.800781 12.769531 29.617188 12.976562 29.34375 C 13 29.3125 13.027344 29.269531 13.074219 29.230469 C 13.117188 29.1875 13.195312 29.144531 13.277344 29.148438 C 13.4375 29.15625 13.542969 29.269531 13.621094 29.332031 C 13.703125 29.40625 13.746094 29.414062 13.824219 29.390625 C 13.898438 29.363281 13.960938 29.292969 14.019531 29.1875 C 14.15625 28.917969 14.296875 28.644531 14.417969 28.417969 Z M 15.449219 27.566406 C 15.515625 26.667969 15.570312 25.761719 15.613281 24.855469 C 15.394531 24.851562 15.179688 24.835938 14.984375 24.816406 C 14.96875 26.125 14.945312 27.4375 14.902344 28.742188 C 14.96875 28.753906 15.023438 28.78125 15.0625 28.800781 C 15.078125 28.808594 15.089844 28.816406 15.105469 28.824219 C 15.109375 28.820312 15.136719 28.804688 15.152344 28.773438 C 15.300781 28.5 15.410156 28.046875 15.449219 27.566406 Z M 15.628906 24.421875 C 15.695312 22.984375 15.726562 21.542969 15.726562 20.105469 C 15.597656 19.835938 15.386719 19.5 15.050781 19.289062 C 14.828125 19.152344 14.5625 19.078125 14.296875 19.078125 C 14.105469 19.078125 13.917969 19.113281 13.746094 19.1875 C 13.304688 19.378906 12.96875 19.792969 12.671875 20.15625 L 11.628906 21.445312 C 11.425781 21.699219 11.214844 21.957031 11.09375 22.25 C 10.972656 22.550781 10.964844 22.847656 11.082031 23.070312 C 11.261719 23.417969 11.710938 23.566406 12.152344 23.691406 L 13.585938 24.101562 C 13.832031 24.167969 14.085938 24.238281 14.332031 24.292969 C 14.65625 24.355469 15.171875 24.414062 15.628906 24.421875 Z M 19.765625 29.964844 C 19.773438 29.894531 19.730469 29.800781 19.6875 29.714844 L 19.347656 28.980469 C 19.285156 28.839844 19.210938 28.679688 19.097656 28.59375 C 19.023438 28.542969 18.910156 28.53125 18.871094 28.578125 C 18.859375 28.59375 18.84375 28.605469 18.824219 28.621094 C 18.828125 28.621094 18.828125 28.625 18.832031 28.632812 C 18.867188 28.722656 18.886719 28.789062 18.90625 28.859375 C 18.980469 29.140625 18.984375 29.316406 18.949219 29.324219 C 18.914062 29.332031 18.847656 29.171875 18.730469 28.921875 C 18.703125 28.863281 18.671875 28.785156 18.636719 28.730469 C 18.621094 28.699219 18.601562 28.675781 18.585938 28.664062 C 18.566406 28.65625 18.5625 28.65625 18.550781 28.65625 C 18.539062 28.660156 18.519531 28.671875 18.503906 28.691406 C 18.488281 28.707031 18.476562 28.734375 18.464844 28.773438 C 18.445312 28.84375 18.433594 28.957031 18.414062 29.0625 C 18.398438 29.167969 18.390625 29.257812 18.359375 29.382812 C 18.339844 29.441406 18.3125 29.507812 18.25 29.566406 C 18.191406 29.621094 18.113281 29.644531 18.050781 29.648438 C 17.929688 29.65625 17.851562 29.636719 17.785156 29.640625 C 17.714844 29.644531 17.648438 29.65625 17.589844 29.679688 C 17.355469 29.757812 17.25 29.90625 17.21875 29.886719 C 17.203125 29.878906 17.207031 29.828125 17.25 29.753906 C 17.292969 29.679688 17.378906 29.582031 17.515625 29.507812 C 17.585938 29.472656 17.667969 29.441406 17.761719 29.429688 C 17.859375 29.410156 17.960938 29.421875 18.023438 29.414062 C 18.054688 29.40625 18.070312 29.398438 18.078125 29.386719 C 18.089844 29.375 18.101562 29.351562 18.113281 29.3125 C 18.128906 29.238281 18.140625 29.121094 18.15625 29.019531 C 18.179688 28.914062 18.183594 28.820312 18.21875 28.695312 C 18.253906 28.582031 18.347656 28.453125 18.488281 28.425781 L 17.945312 19.328125 C 17.914062 18.855469 17.886719 18.359375 17.886719 17.851562 C 17.296875 17.816406 16.710938 17.773438 16.132812 17.71875 C 16.207031 21.003906 16.125 24.324219 15.878906 27.597656 C 15.859375 27.859375 15.789062 28.507812 15.535156 28.980469 C 15.488281 29.058594 15.421875 29.132812 15.339844 29.183594 C 15.375 29.207031 15.410156 29.230469 15.441406 29.257812 C 15.542969 29.347656 15.625 29.464844 15.6875 29.59375 C 15.695312 29.589844 15.699219 29.585938 15.707031 29.582031 C 15.832031 29.523438 15.980469 29.519531 16.101562 29.570312 C 16.164062 29.597656 16.21875 29.628906 16.261719 29.671875 C 16.285156 29.695312 16.304688 29.71875 16.324219 29.746094 C 16.339844 29.765625 16.351562 29.785156 16.359375 29.800781 C 16.375 29.789062 16.390625 29.78125 16.402344 29.769531 C 16.46875 29.722656 16.53125 29.679688 16.585938 29.640625 C 16.8125 29.488281 16.964844 29.40625 16.984375 29.433594 C 17.007812 29.460938 16.898438 29.59375 16.703125 29.78125 C 16.652344 29.832031 16.597656 29.882812 16.539062 29.9375 C 16.503906 29.960938 16.492188 29.992188 16.414062 30.03125 C 16.375 30.050781 16.300781 30.054688 16.25 30.027344 C 16.199219 29.996094 16.179688 29.960938 16.160156 29.9375 C 16.085938 29.8125 15.945312 29.757812 15.816406 29.820312 C 15.78125 29.832031 15.757812 29.855469 15.734375 29.878906 L 15.585938 30.039062 L 15.515625 29.839844 C 15.453125 29.671875 15.378906 29.527344 15.28125 29.429688 C 15.1875 29.324219 15.082031 29.28125 14.980469 29.273438 C 14.933594 29.269531 14.898438 29.269531 14.863281 29.273438 L 14.652344 30.21875 C 14.644531 30.242188 14.628906 30.320312 14.636719 30.339844 C 14.6875 30.402344 14.996094 30.460938 15.128906 30.488281 C 15.226562 30.507812 15.316406 30.523438 15.386719 30.546875 C 15.691406 30.644531 16.039062 30.628906 16.378906 30.617188 L 16.53125 30.613281 C 17.464844 30.585938 18.394531 30.464844 19.300781 30.253906 C 19.433594 30.222656 19.75 30.132812 19.765625 29.964844 Z M 23.832031 17.230469 C 24.046875 17.027344 24.015625 16.632812 23.863281 16.371094 C 23.691406 16.074219 23.382812 15.847656 23.089844 15.632812 L 23.046875 15.601562 C 22.113281 14.921875 21.214844 14.164062 20.382812 13.355469 C 20.214844 13.1875 20.042969 13 19.863281 12.800781 C 19.386719 12.273438 18.847656 11.671875 18.238281 11.488281 C 17.960938 11.40625 17.636719 11.390625 17.222656 11.441406 C 16.632812 11.507812 16.0625 11.675781 15.515625 11.929688 C 15.171875 12.09375 14.882812 12.3125 14.582031 12.546875 C 14.40625 12.679688 14.222656 12.824219 14.023438 12.953125 C 13.691406 13.171875 13.285156 13.328125 12.898438 13.476562 C 12.679688 13.5625 12.472656 13.640625 12.28125 13.730469 C 11.660156 14.019531 11.03125 14.320312 10.410156 14.628906 C 10.175781 14.746094 9.90625 14.878906 9.714844 15.074219 C 9.589844 15.203125 9.464844 15.40625 9.472656 15.613281 C 10.65625 16.394531 12.101562 16.714844 13.492188 16.941406 C 16.523438 17.433594 19.746094 17.601562 23.078125 17.433594 C 23.378906 17.417969 23.660156 17.390625 23.832031 17.230469 Z M 24.179688 17.484375 C 24.164062 17.503906 24.148438 17.523438 24.128906 17.542969 C 23.851562 17.804688 23.46875 17.847656 23.101562 17.867188 C 22.898438 17.875 22.699219 17.878906 22.496094 17.890625 C 21.730469 20.566406 21.070312 23.277344 20.519531 25.992188 C 20.609375 26.011719 20.699219 26.046875 20.777344 26.101562 C 20.960938 26.214844 21.097656 26.40625 21.199219 26.605469 C 21.308594 26.523438 21.4375 26.457031 21.585938 26.445312 C 21.6875 26.4375 21.78125 26.460938 21.867188 26.507812 C 21.90625 26.53125 21.941406 26.558594 21.972656 26.589844 C 22.1875 26.378906 22.375 26.316406 22.386719 26.34375 C 22.414062 26.378906 22.226562 26.523438 22.035156 26.8125 L 21.941406 26.960938 L 21.859375 26.789062 C 21.828125 26.722656 21.71875 26.667969 21.605469 26.6875 C 21.492188 26.703125 21.367188 26.789062 21.242188 26.902344 L 21.117188 27.019531 L 21.039062 26.863281 C 21.023438 26.828125 21.007812 26.792969 20.988281 26.761719 C 20.890625 26.5625 20.78125 26.398438 20.644531 26.300781 C 20.546875 26.226562 20.441406 26.1875 20.34375 26.179688 C 20.3125 26.1875 20.199219 26.214844 20.199219 26.214844 C 20.007812 26.257812 20.171875 27.121094 20.257812 27.25 C 20.460938 27.546875 21.074219 27.660156 21.398438 27.699219 C 21.722656 27.734375 22.050781 27.710938 22.375 27.683594 C 22.738281 27.65625 23.585938 27.761719 23.804688 27.398438 C 24.035156 27.011719 23.742188 26.460938 23.429688 26.230469 C 23.332031 26.167969 23.300781 26.039062 23.359375 25.9375 C 23.417969 25.839844 23.425781 25.707031 23.386719 25.574219 C 23.363281 25.503906 23.324219 25.441406 23.28125 25.390625 C 23.167969 25.332031 23.066406 25.320312 22.96875 25.390625 C 22.804688 25.5 22.757812 25.734375 22.714844 25.929688 L 22.679688 26.089844 L 22.554688 26.007812 C 22.449219 25.9375 22.316406 25.941406 22.234375 25.957031 C 22.148438 25.976562 22.09375 26.003906 22.078125 25.988281 C 22.0625 25.972656 22.085938 25.90625 22.183594 25.84375 C 22.253906 25.796875 22.375 25.753906 22.515625 25.773438 C 22.523438 25.703125 22.535156 25.628906 22.558594 25.546875 C 22.597656 25.417969 22.679688 25.273438 22.820312 25.175781 C 22.878906 25.132812 22.953125 25.105469 23.03125 25.09375 C 23.03125 25.089844 23.027344 25.089844 23.027344 25.089844 C 23.148438 22.519531 23.535156 19.972656 24.179688 17.484375 Z M 24.40625 16.660156 C 24.488281 16.367188 24.574219 16.078125 24.664062 15.789062 C 24.363281 15.734375 24.058594 15.667969 23.753906 15.601562 C 23.9375 15.757812 24.109375 15.933594 24.234375 16.152344 C 24.324219 16.300781 24.382812 16.476562 24.40625 16.660156 Z M 29.042969 16 C 29.117188 15.925781 29.148438 15.785156 29.132812 15.582031 C 29.058594 14.566406 28.328125 13.71875 27.515625 12.863281 L 25.433594 10.675781 C 25.292969 10.527344 25.160156 10.398438 25.015625 10.375 C 24.890625 10.355469 24.742188 10.410156 24.570312 10.488281 L 22.644531 11.335938 C 22.378906 11.457031 22.113281 11.566406 21.84375 11.683594 C 21.273438 11.921875 20.683594 12.167969 20.136719 12.457031 C 20.152344 12.472656 20.171875 12.492188 20.183594 12.511719 C 20.359375 12.703125 20.523438 12.886719 20.683594 13.042969 C 21.378906 13.71875 22.121094 14.355469 22.894531 14.945312 C 23.832031 15.199219 24.789062 15.378906 25.667969 15.542969 L 28.433594 16.054688 C 28.667969 16.097656 28.925781 16.125 29.042969 16 Z M 29.566406 15.550781 C 29.589844 15.886719 29.523438 16.132812 29.351562 16.304688 C 29.183594 16.476562 28.957031 16.523438 28.753906 16.523438 C 28.597656 16.523438 28.453125 16.496094 28.355469 16.480469 L 25.585938 15.964844 C 25.421875 15.9375 25.257812 15.90625 25.089844 15.875 C 24.167969 18.828125 23.625 21.886719 23.464844 24.980469 C 23.617188 25.089844 23.734375 25.25 23.796875 25.445312 C 23.828125 25.539062 23.84375 25.636719 23.84375 25.734375 C 23.878906 25.824219 23.882812 25.882812 23.863281 25.890625 C 23.855469 25.894531 23.84375 25.890625 23.828125 25.882812 C 23.824219 25.914062 23.820312 25.945312 23.8125 25.976562 C 23.8125 25.988281 24.0625 26.269531 24.085938 26.308594 C 24.167969 26.445312 24.246094 26.613281 24.285156 26.769531 C 24.386719 27.167969 24.234375 27.644531 23.859375 27.835938 C 23.636719 27.953125 23.386719 27.984375 23.140625 28.007812 C 22.53125 28.066406 21.914062 28.027344 21.3125 28.089844 C 21.09375 28.113281 20.914062 28.105469 20.695312 28.0625 C 20.601562 28.046875 20.003906 27.925781 20.003906 27.796875 C 19.40625 27.351562 19.558594 26.507812 19.851562 25.929688 C 19.882812 25.871094 19.933594 25.832031 19.996094 25.816406 L 20.121094 25.785156 C 20.65625 23.148438 21.304688 20.507812 22.042969 17.90625 C 21.554688 17.921875 21.070312 17.929688 20.589844 17.929688 C 19.828125 17.929688 19.070312 17.910156 18.320312 17.871094 C 18.320312 18.359375 18.347656 18.84375 18.375 19.304688 L 18.90625 28.117188 C 19.0625 28.109375 19.230469 28.15625 19.351562 28.246094 C 19.554688 28.398438 19.65625 28.617188 19.742188 28.796875 L 20.082031 29.53125 C 20.140625 29.65625 20.21875 29.824219 20.195312 30.015625 C 20.171875 30.238281 20.011719 30.53125 19.398438 30.675781 C 18.464844 30.894531 17.503906 31.019531 16.542969 31.046875 L 16.394531 31.050781 C 16.277344 31.054688 16.15625 31.058594 16.035156 31.058594 C 15.773438 31.058594 15.511719 31.039062 15.253906 30.957031 C 15.207031 30.945312 15.128906 30.929688 15.046875 30.914062 C 14.734375 30.851562 14.378906 30.785156 14.253906 30.539062 C 14.222656 30.480469 14.207031 30.421875 14.203125 30.363281 C 13.886719 30.535156 13.511719 30.578125 13.242188 30.605469 C 13.113281 30.621094 12.976562 30.636719 12.832031 30.636719 C 12.734375 30.636719 12.632812 30.628906 12.535156 30.609375 C 12.230469 30.546875 11.988281 30.382812 11.867188 30.148438 C 11.855469 30.128906 11.84375 30.105469 11.835938 30.085938 C 11.773438 30.15625 11.695312 30.210938 11.613281 30.253906 C 11.425781 30.34375 11.21875 30.363281 11.03125 30.363281 C 10.972656 30.363281 10.910156 30.359375 10.855469 30.359375 L 9.710938 30.320312 C 9.6875 30.320312 9.621094 30.328125 9.558594 30.332031 C 9.25 30.359375 8.933594 30.382812 8.792969 30.183594 C 8.699219 30.046875 8.699219 29.894531 8.699219 29.789062 C 8.699219 29.71875 8.699219 29.648438 8.695312 29.574219 C 8.6875 29.34375 8.683594 29.105469 8.738281 28.871094 C 8.757812 28.78125 8.785156 28.703125 8.8125 28.628906 C 8.847656 28.53125 8.882812 28.449219 8.890625 28.359375 C 8.933594 27.929688 8.859375 27.449219 8.785156 26.980469 C 8.757812 26.804688 8.730469 26.628906 8.710938 26.460938 C 8.574219 25.347656 8.40625 24.226562 8.214844 23.121094 C 7.507812 22.972656 6.8125 22.765625 6.136719 22.5 C 5.710938 22.332031 5.207031 22.074219 5.046875 21.570312 C 5.023438 21.492188 5.046875 21.402344 5.109375 21.347656 L 7.867188 18.84375 C 8.125 18.609375 8.484375 18.285156 8.9375 18.21875 C 9.589844 18.125 10.152344 18.582031 10.566406 18.988281 C 10.988281 19.40625 11.390625 19.84375 11.769531 20.292969 C 11.808594 20.34375 11.847656 20.390625 11.890625 20.441406 L 12.335938 19.886719 C 12.648438 19.5 13.035156 19.023438 13.574219 18.789062 C 14.125 18.554688 14.777344 18.605469 15.28125 18.925781 C 15.445312 19.027344 15.589844 19.15625 15.726562 19.3125 C 15.71875 18.765625 15.710938 18.21875 15.699219 17.671875 C 14.929688 17.589844 14.167969 17.488281 13.421875 17.367188 C 11.953125 17.128906 10.414062 16.785156 9.148438 15.914062 C 9.097656 15.882812 9.066406 15.835938 9.054688 15.78125 C 8.988281 15.441406 9.121094 15.0625 9.40625 14.769531 C 9.648438 14.523438 9.964844 14.367188 10.21875 14.242188 C 10.84375 13.933594 11.472656 13.628906 12.097656 13.335938 C 12.304688 13.242188 12.527344 13.15625 12.742188 13.074219 C 13.109375 12.933594 13.492188 12.785156 13.789062 12.589844 C 13.972656 12.46875 14.148438 12.332031 14.320312 12.203125 C 14.628906 11.964844 14.945312 11.722656 15.332031 11.539062 C 15.917969 11.261719 16.535156 11.085938 17.171875 11.011719 C 17.648438 10.957031 18.027344 10.976562 18.363281 11.074219 C 18.929688 11.246094 19.40625 11.675781 19.832031 12.125 C 19.851562 12.117188 19.867188 12.105469 19.886719 12.09375 C 20.464844 11.792969 21.082031 11.53125 21.671875 11.285156 C 21.941406 11.171875 22.210938 11.058594 22.472656 10.941406 L 24.394531 10.09375 C 24.574219 10.011719 24.820312 9.90625 25.085938 9.949219 C 25.386719 9.996094 25.59375 10.214844 25.746094 10.378906 L 27.828125 12.566406 C 28.695312 13.480469 29.480469 14.394531 29.566406 15.550781 Z M 10.136719 29.464844 C 10.136719 29.464844 10.136719 29.46875 10.132812 29.46875 C 10.125 29.46875 10.101562 29.480469 10.066406 29.488281 C 10.027344 29.496094 9.980469 29.5 9.941406 29.488281 C 9.855469 29.46875 9.800781 29.417969 9.757812 29.371094 C 9.71875 29.324219 9.6875 29.273438 9.660156 29.226562 C 9.574219 29.046875 9.492188 28.917969 9.382812 28.878906 C 9.328125 28.859375 9.277344 28.859375 9.238281 28.875 C 9.214844 28.886719 9.191406 28.90625 9.167969 28.929688 C 9.164062 28.945312 9.160156 28.957031 9.15625 28.972656 C 9.117188 29.148438 9.121094 29.355469 9.128906 29.558594 C 9.128906 29.636719 9.132812 29.714844 9.132812 29.789062 C 9.132812 29.820312 9.132812 29.875 9.140625 29.910156 C 9.230469 29.925781 9.429688 29.90625 9.519531 29.898438 C 9.605469 29.894531 9.675781 29.886719 9.730469 29.890625 L 10.871094 29.925781 C 11.054688 29.933594 11.269531 29.941406 11.425781 29.863281 C 11.535156 29.8125 11.628906 29.679688 11.597656 29.585938 C 11.570312 29.5 11.46875 29.449219 11.308594 29.371094 C 11.195312 29.316406 11.066406 29.25 10.960938 29.15625 C 10.714844 28.933594 10.652344 28.59375 10.613281 28.367188 C 10.308594 26.710938 10.058594 25.03125 9.859375 23.351562 C 9.460938 23.320312 9.0625 23.273438 8.667969 23.207031 C 8.847656 24.269531 9.007812 25.339844 9.136719 26.410156 C 9.160156 26.570312 9.183594 26.742188 9.210938 26.914062 C 9.289062 27.410156 9.371094 27.917969 9.320312 28.402344 C 9.3125 28.488281 9.292969 28.566406 9.269531 28.640625 C 9.332031 28.628906 9.398438 28.632812 9.457031 28.652344 C 9.566406 28.683594 9.660156 28.757812 9.730469 28.839844 C 9.800781 28.925781 9.851562 29.023438 9.894531 29.105469 C 9.929688 29.179688 9.988281 29.242188 10 29.242188 C 10.011719 29.242188 10 29.246094 10.074219 29.226562 C 10.105469 29.21875 10.164062 29.214844 10.203125 29.230469 C 10.246094 29.242188 10.277344 29.269531 10.304688 29.289062 C 10.351562 29.332031 10.375 29.375 10.398438 29.410156 L 10.410156 29.433594 C 10.414062 29.4375 10.417969 29.445312 10.421875 29.449219 C 10.425781 29.457031 10.433594 29.464844 10.441406 29.472656 C 10.449219 29.480469 10.457031 29.484375 10.464844 29.488281 C 10.464844 29.488281 10.464844 29.488281 10.464844 29.492188 C 10.476562 29.472656 10.488281 29.429688 10.515625 29.398438 C 10.539062 29.363281 10.570312 29.339844 10.597656 29.324219 C 10.65625 29.292969 10.714844 29.289062 10.761719 29.292969 C 10.851562 29.304688 10.878906 29.355469 10.867188 29.367188 C 10.859375 29.386719 10.820312 29.375 10.765625 29.394531 C 10.738281 29.402344 10.707031 29.417969 10.683594 29.445312 C 10.671875 29.457031 10.660156 29.472656 10.652344 29.488281 C 10.648438 29.5 10.648438 29.515625 10.636719 29.558594 C 10.628906 29.601562 10.578125 29.679688 10.496094 29.691406 C 10.417969 29.703125 10.363281 29.675781 10.316406 29.648438 C 10.292969 29.636719 10.273438 29.617188 10.253906 29.597656 C 10.242188 29.585938 10.234375 29.574219 10.226562 29.5625 L 10.207031 29.539062 C 10.183594 29.507812 10.160156 29.480469 10.144531 29.46875 C 10.140625 29.464844 10.136719 29.464844 10.136719 29.464844 " fill-opacity="1" fill-rule="nonzero"/></g><g clip-path="url(#e4b4c1b9cc)"><path fill="#ffffff" d="M 29.132812 15.582031 C 29.148438 15.785156 29.117188 15.925781 29.042969 16 C 28.925781 16.125 28.667969 16.097656 28.433594 16.054688 L 25.667969 15.542969 C 24.789062 15.378906 23.832031 15.199219 22.894531 14.945312 C 22.121094 14.355469 21.378906 13.71875 20.683594 13.042969 C 20.523438 12.886719 20.359375 12.703125 20.183594 12.511719 C 20.171875 12.492188 20.152344 12.472656 20.136719 12.457031 C 20.683594 12.167969 21.273438 11.921875 21.84375 11.683594 C 22.113281 11.566406 22.378906 11.457031 22.644531 11.335938 L 24.570312 10.488281 C 24.742188 10.410156 24.890625 10.355469 25.015625 10.375 C 25.160156 10.398438 25.292969 10.527344 25.433594 10.675781 L 27.515625 12.863281 C 28.328125 13.71875 29.058594 14.566406 29.132812 15.582031 " fill-opacity="1" fill-rule="nonzero"/></g><path fill="#ffffff" d="M 24.664062 15.789062 C 24.574219 16.078125 24.488281 16.367188 24.40625 16.660156 C 24.382812 16.476562 24.324219 16.300781 24.234375 16.152344 C 24.109375 15.933594 23.9375 15.757812 23.753906 15.601562 C 24.058594 15.667969 24.363281 15.734375 24.664062 15.789062 " fill-opacity="1" fill-rule="nonzero"/><path fill="#ffffff" d="M 24.128906 17.542969 C 24.148438 17.523438 24.164062 17.503906 24.179688 17.484375 C 23.535156 19.972656 23.148438 22.519531 23.027344 25.089844 C 23.027344 25.089844 23.03125 25.089844 23.03125 25.09375 C 22.953125 25.105469 22.878906 25.132812 22.820312 25.175781 C 22.679688 25.273438 22.597656 25.417969 22.558594 25.546875 C 22.535156 25.628906 22.523438 25.703125 22.515625 25.773438 C 22.375 25.753906 22.253906 25.796875 22.183594 25.84375 C 22.085938 25.90625 22.0625 25.972656 22.078125 25.988281 C 22.09375 26.003906 22.148438 25.976562 22.234375 25.957031 C 22.316406 25.941406 22.449219 25.9375 22.554688 26.007812 L 22.679688 26.089844 L 22.714844 25.929688 C 22.757812 25.734375 22.804688 25.5 22.96875 25.390625 C 23.066406 25.320312 23.167969 25.332031 23.28125 25.390625 C 23.324219 25.441406 23.363281 25.503906 23.386719 25.574219 C 23.425781 25.707031 23.417969 25.839844 23.359375 25.9375 C 23.300781 26.039062 23.332031 26.167969 23.429688 26.230469 C 23.742188 26.460938 24.035156 27.011719 23.804688 27.398438 C 23.585938 27.761719 22.738281 27.65625 22.375 27.683594 C 22.050781 27.710938 21.722656 27.734375 21.398438 27.699219 C 21.074219 27.660156 20.460938 27.546875 20.257812 27.25 C 20.171875 27.121094 20.007812 26.257812 20.199219 26.214844 C 20.199219 26.214844 20.3125 26.1875 20.34375 26.179688 C 20.441406 26.1875 20.546875 26.226562 20.644531 26.300781 C 20.78125 26.398438 20.890625 26.5625 20.988281 26.761719 C 21.007812 26.792969 21.023438 26.828125 21.039062 26.863281 L 21.117188 27.019531 L 21.242188 26.902344 C 21.367188 26.789062 21.492188 26.703125 21.605469 26.6875 C 21.71875 26.667969 21.828125 26.722656 21.859375 26.789062 L 21.941406 26.960938 L 22.035156 26.8125 C 22.226562 26.523438 22.414062 26.378906 22.386719 26.34375 C 22.375 26.316406 22.1875 26.378906 21.972656 26.589844 C 21.941406 26.558594 21.90625 26.53125 21.867188 26.507812 C 21.78125 26.460938 21.6875 26.4375 21.585938 26.445312 C 21.4375 26.457031 21.308594 26.523438 21.199219 26.605469 C 21.097656 26.40625 20.960938 26.214844 20.777344 26.101562 C 20.699219 26.046875 20.609375 26.011719 20.519531 25.992188 C 21.070312 23.277344 21.730469 20.566406 22.496094 17.890625 C 22.699219 17.878906 22.898438 17.875 23.101562 17.867188 C 23.46875 17.847656 23.851562 17.804688 24.128906 17.542969 " fill-opacity="1" fill-rule="nonzero"/><path fill="#ffffff" d="M 23.863281 16.371094 C 24.015625 16.632812 24.046875 17.027344 23.832031 17.230469 C 23.660156 17.390625 23.378906 17.417969 23.078125 17.433594 C 19.746094 17.601562 16.523438 17.433594 13.492188 16.941406 C 12.101562 16.714844 10.65625 16.394531 9.472656 15.613281 C 9.464844 15.40625 9.589844 15.203125 9.714844 15.074219 C 9.90625 14.878906 10.175781 14.746094 10.410156 14.628906 C 11.03125 14.320312 11.660156 14.019531 12.28125 13.730469 C 12.472656 13.640625 12.679688 13.5625 12.898438 13.476562 C 13.285156 13.328125 13.691406 13.171875 14.023438 12.953125 C 14.222656 12.824219 14.40625 12.679688 14.582031 12.546875 C 14.882812 12.3125 15.171875 12.09375 15.515625 11.929688 C 16.0625 11.675781 16.632812 11.507812 17.222656 11.441406 C 17.636719 11.390625 17.960938 11.40625 18.238281 11.488281 C 18.847656 11.671875 19.386719 12.273438 19.863281 12.800781 C 20.042969 13 20.214844 13.1875 20.382812 13.355469 C 21.214844 14.164062 22.113281 14.921875 23.046875 15.601562 L 23.089844 15.632812 C 23.382812 15.847656 23.691406 16.074219 23.863281 16.371094 " fill-opacity="1" fill-rule="nonzero"/><path fill="#ffffff" d="M 19.6875 29.714844 C 19.730469 29.800781 19.773438 29.894531 19.765625 29.964844 C 19.75 30.132812 19.433594 30.222656 19.300781 30.253906 C 18.394531 30.464844 17.464844 30.585938 16.53125 30.613281 L 16.378906 30.617188 C 16.039062 30.628906 15.691406 30.644531 15.386719 30.546875 C 15.316406 30.523438 15.226562 30.507812 15.128906 30.488281 C 14.996094 30.460938 14.6875 30.402344 14.636719 30.339844 C 14.628906 30.320312 14.644531 30.242188 14.652344 30.21875 L 14.863281 29.273438 C 14.898438 29.269531 14.933594 29.269531 14.980469 29.273438 C 15.082031 29.28125 15.1875 29.324219 15.28125 29.429688 C 15.378906 29.527344 15.453125 29.671875 15.515625 29.839844 L 15.585938 30.039062 L 15.734375 29.878906 C 15.757812 29.855469 15.78125 29.832031 15.816406 29.820312 C 15.945312 29.757812 16.085938 29.8125 16.160156 29.9375 C 16.179688 29.960938 16.199219 29.996094 16.25 30.027344 C 16.300781 30.054688 16.375 30.050781 16.414062 30.03125 C 16.492188 29.992188 16.503906 29.960938 16.539062 29.9375 C 16.597656 29.882812 16.652344 29.832031 16.703125 29.78125 C 16.898438 29.59375 17.007812 29.460938 16.984375 29.433594 C 16.964844 29.40625 16.8125 29.488281 16.585938 29.640625 C 16.53125 29.679688 16.46875 29.722656 16.402344 29.769531 C 16.390625 29.78125 16.375 29.789062 16.359375 29.800781 C 16.351562 29.785156 16.339844 29.765625 16.324219 29.746094 C 16.304688 29.71875 16.285156 29.695312 16.261719 29.671875 C 16.21875 29.628906 16.164062 29.597656 16.101562 29.570312 C 15.980469 29.519531 15.832031 29.523438 15.707031 29.582031 C 15.699219 29.585938 15.695312 29.589844 15.6875 29.59375 C 15.625 29.464844 15.542969 29.347656 15.441406 29.257812 C 15.410156 29.230469 15.375 29.207031 15.339844 29.183594 C 15.421875 29.132812 15.488281 29.058594 15.535156 28.980469 C 15.789062 28.507812 15.859375 27.859375 15.878906 27.597656 C 16.125 24.324219 16.207031 21.003906 16.132812 17.71875 C 16.710938 17.773438 17.296875 17.816406 17.886719 17.851562 C 17.886719 18.359375 17.914062 18.855469 17.945312 19.328125 L 18.488281 28.425781 C 18.347656 28.453125 18.253906 28.582031 18.21875 28.695312 C 18.183594 28.820312 18.179688 28.914062 18.15625 29.019531 C 18.140625 29.121094 18.128906 29.238281 18.113281 29.3125 C 18.101562 29.351562 18.089844 29.375 18.078125 29.386719 C 18.070312 29.398438 18.054688 29.40625 18.023438 29.414062 C 17.960938 29.421875 17.859375 29.410156 17.761719 29.429688 C 17.667969 29.441406 17.585938 29.472656 17.515625 29.507812 C 17.378906 29.582031 17.292969 29.679688 17.25 29.753906 C 17.207031 29.828125 17.203125 29.878906 17.21875 29.886719 C 17.25 29.90625 17.355469 29.757812 17.589844 29.679688 C 17.648438 29.65625 17.714844 29.644531 17.785156 29.640625 C 17.851562 29.636719 17.929688 29.65625 18.050781 29.648438 C 18.113281 29.644531 18.191406 29.621094 18.25 29.566406 C 18.3125 29.507812 18.339844 29.441406 18.359375 29.382812 C 18.390625 29.257812 18.398438 29.167969 18.414062 29.0625 C 18.433594 28.957031 18.445312 28.84375 18.464844 28.773438 C 18.476562 28.734375 18.488281 28.707031 18.503906 28.691406 C 18.519531 28.671875 18.539062 28.660156 18.550781 28.65625 C 18.5625 28.65625 18.566406 28.65625 18.585938 28.664062 C 18.601562 28.675781 18.621094 28.699219 18.636719 28.730469 C 18.671875 28.785156 18.703125 28.863281 18.730469 28.921875 C 18.847656 29.171875 18.914062 29.332031 18.949219 29.324219 C 18.984375 29.316406 18.980469 29.140625 18.90625 28.859375 C 18.886719 28.789062 18.867188 28.722656 18.832031 28.632812 C 18.828125 28.625 18.828125 28.621094 18.824219 28.621094 C 18.84375 28.605469 18.859375 28.59375 18.871094 28.578125 C 18.910156 28.53125 19.023438 28.542969 19.097656 28.59375 C 19.210938 28.679688 19.285156 28.839844 19.347656 28.980469 L 19.6875 29.714844 " fill-opacity="1" fill-rule="nonzero"/><path fill="#ffffff" d="M 15.726562 20.105469 C 15.726562 21.542969 15.695312 22.984375 15.628906 24.421875 C 15.171875 24.414062 14.65625 24.355469 14.332031 24.292969 C 14.085938 24.238281 13.832031 24.167969 13.585938 24.101562 L 12.152344 23.691406 C 11.710938 23.566406 11.261719 23.417969 11.082031 23.070312 C 10.964844 22.847656 10.972656 22.550781 11.09375 22.25 C 11.214844 21.957031 11.425781 21.699219 11.628906 21.445312 L 12.671875 20.15625 C 12.96875 19.792969 13.304688 19.378906 13.746094 19.1875 C 13.917969 19.113281 14.105469 19.078125 14.296875 19.078125 C 14.5625 19.078125 14.828125 19.152344 15.050781 19.289062 C 15.386719 19.5 15.597656 19.835938 15.726562 20.105469 " fill-opacity="1" fill-rule="nonzero"/><path fill="#ffffff" d="M 14.554688 24.765625 C 14.539062 25.941406 14.515625 27.125 14.480469 28.300781 L 14.417969 28.417969 C 14.296875 28.644531 14.15625 28.917969 14.019531 29.1875 C 13.960938 29.292969 13.898438 29.363281 13.824219 29.390625 C 13.746094 29.414062 13.703125 29.40625 13.621094 29.332031 C 13.542969 29.269531 13.4375 29.15625 13.277344 29.148438 C 13.195312 29.144531 13.117188 29.1875 13.074219 29.230469 C 13.027344 29.269531 13 29.3125 12.976562 29.34375 C 12.769531 29.617188 12.65625 29.800781 12.683594 29.828125 C 12.710938 29.847656 12.875 29.710938 13.117188 29.464844 C 13.175781 29.398438 13.234375 29.351562 13.265625 29.363281 C 13.285156 29.367188 13.316406 29.382812 13.351562 29.40625 C 13.382812 29.429688 13.414062 29.464844 13.460938 29.511719 C 13.503906 29.554688 13.5625 29.605469 13.648438 29.636719 C 13.734375 29.664062 13.828125 29.65625 13.90625 29.628906 C 13.984375 29.605469 14.054688 29.558594 14.113281 29.5 C 14.171875 29.441406 14.210938 29.378906 14.246094 29.316406 C 14.328125 29.15625 14.398438 29.011719 14.464844 28.871094 C 14.460938 28.960938 14.460938 29.054688 14.449219 29.140625 L 14.347656 29.597656 C 14.3125 29.6875 14.261719 29.769531 14.199219 29.839844 C 13.972656 30.074219 13.597656 30.132812 13.195312 30.175781 C 13 30.195312 12.796875 30.21875 12.617188 30.183594 C 12.445312 30.152344 12.308594 30.0625 12.25 29.949219 C 12.152344 29.757812 12.261719 29.488281 12.410156 29.304688 C 12.496094 29.199219 12.59375 29.109375 12.699219 29.011719 C 12.832031 28.886719 12.96875 28.761719 13.082031 28.605469 C 13.5 28.046875 13.511719 27.335938 13.488281 26.59375 L 13.417969 24.5 L 13.46875 24.515625 C 13.722656 24.585938 13.984375 24.660156 14.25 24.714844 C 14.253906 24.714844 14.371094 24.738281 14.554688 24.765625 " fill-opacity="1" fill-rule="nonzero"/><g clip-path="url(#8dc58e6f7c)"><path fill="#ffffff" d="M 11.609375 20.785156 L 11.296875 21.171875 C 11.082031 21.4375 10.839844 21.734375 10.695312 22.085938 C 10.574219 22.375 10.542969 22.667969 10.589844 22.933594 C 10.421875 22.945312 10.242188 22.945312 10.042969 22.933594 C 8.753906 22.851562 7.496094 22.570312 6.296875 22.097656 C 6.003906 21.984375 5.664062 21.820312 5.515625 21.5625 L 8.15625 19.164062 C 8.441406 18.90625 8.703125 18.6875 9 18.644531 C 9.464844 18.578125 9.917969 18.957031 10.261719 19.296875 C 10.671875 19.703125 11.066406 20.128906 11.4375 20.570312 C 11.496094 20.640625 11.554688 20.710938 11.609375 20.785156 " fill-opacity="1" fill-rule="nonzero"/></g><path fill="#ffffff" d="M 11.597656 29.585938 C 11.628906 29.679688 11.535156 29.8125 11.425781 29.863281 C 11.269531 29.941406 11.054688 29.933594 10.871094 29.925781 L 9.730469 29.890625 C 9.675781 29.886719 9.605469 29.894531 9.519531 29.898438 C 9.429688 29.90625 9.230469 29.925781 9.140625 29.910156 C 9.132812 29.875 9.132812 29.820312 9.132812 29.789062 C 9.132812 29.714844 9.128906 29.636719 9.128906 29.558594 C 9.121094 29.355469 9.117188 29.148438 9.15625 28.972656 C 9.160156 28.957031 9.164062 28.945312 9.167969 28.929688 C 9.191406 28.90625 9.214844 28.886719 9.238281 28.875 C 9.277344 28.859375 9.328125 28.859375 9.382812 28.878906 C 9.492188 28.917969 9.574219 29.046875 9.660156 29.226562 C 9.6875 29.273438 9.71875 29.324219 9.757812 29.371094 C 9.800781 29.417969 9.855469 29.46875 9.941406 29.488281 C 9.980469 29.5 10.027344 29.496094 10.066406 29.488281 C 10.101562 29.480469 10.125 29.46875 10.132812 29.46875 C 10.136719 29.46875 10.136719 29.464844 10.136719 29.464844 C 10.136719 29.464844 10.140625 29.464844 10.144531 29.46875 C 10.160156 29.480469 10.183594 29.507812 10.207031 29.539062 L 10.226562 29.5625 C 10.234375 29.574219 10.242188 29.585938 10.253906 29.597656 C 10.273438 29.617188 10.292969 29.636719 10.316406 29.648438 C 10.363281 29.675781 10.417969 29.703125 10.496094 29.691406 C 10.578125 29.679688 10.628906 29.601562 10.636719 29.558594 C 10.648438 29.515625 10.648438 29.5 10.652344 29.488281 C 10.660156 29.472656 10.671875 29.457031 10.683594 29.445312 C 10.707031 29.417969 10.738281 29.402344 10.765625 29.394531 C 10.820312 29.375 10.859375 29.386719 10.867188 29.367188 C 10.878906 29.355469 10.851562 29.304688 10.761719 29.292969 C 10.714844 29.289062 10.65625 29.292969 10.597656 29.324219 C 10.570312 29.339844 10.539062 29.363281 10.515625 29.398438 C 10.488281 29.429688 10.476562 29.472656 10.464844 29.492188 C 10.464844 29.488281 10.464844 29.488281 10.464844 29.488281 C 10.457031 29.484375 10.449219 29.480469 10.441406 29.472656 C 10.433594 29.464844 10.425781 29.457031 10.421875 29.449219 C 10.417969 29.445312 10.414062 29.4375 10.410156 29.433594 L 10.398438 29.410156 C 10.375 29.375 10.351562 29.332031 10.304688 29.289062 C 10.277344 29.269531 10.246094 29.242188 10.203125 29.230469 C 10.164062 29.214844 10.105469 29.21875 10.074219 29.226562 C 10 29.246094 10.011719 29.242188 10 29.242188 C 9.988281 29.242188 9.929688 29.179688 9.894531 29.105469 C 9.851562 29.023438 9.800781 28.925781 9.730469 28.839844 C 9.660156 28.757812 9.566406 28.683594 9.457031 28.652344 C 9.398438 28.632812 9.332031 28.628906 9.269531 28.640625 C 9.292969 28.566406 9.3125 28.488281 9.320312 28.402344 C 9.371094 27.917969 9.289062 27.410156 9.210938 26.914062 C 9.183594 26.742188 9.160156 26.570312 9.136719 26.410156 C 9.007812 25.339844 8.847656 24.269531 8.667969 23.207031 C 9.0625 23.273438 9.460938 23.320312 9.859375 23.351562 C 10.058594 25.03125 10.308594 26.710938 10.613281 28.367188 C 10.652344 28.59375 10.714844 28.933594 10.960938 29.15625 C 11.066406 29.25 11.195312 29.316406 11.308594 29.371094 C 11.46875 29.449219 11.570312 29.5 11.597656 29.585938 " fill-opacity="1" fill-rule="nonzero"/></svg>